<svg width="55" height="59" viewBox="0 0 55 59" fill="none" xmlns="http://www.w3.org/2000/svg">
<path d="M0 0H45C50.5228 0 55 4.47715 55 10V55.4321H10C4.47715 55.4321 0 50.955 0 45.4321V0Z" fill="#8D5F45"/>
<path d="M33.114 14.5483C33.114 21.4703 27.576 27.081 27.576 27.081C27.576 27.081 22.038 21.4703 22.038 14.5483C22.038 7.62737 27.576 2.01562 27.576 2.01562C27.576 2.01562 33.114 7.62636 33.114 14.5483Z" stroke="#D6A994" stroke-width="1.1106" stroke-miterlimit="10"/>
<path d="M15.288 21.4985C22.074 21.4985 27.576 27.08 27.576 27.08C27.576 27.08 22.075 32.6616 15.288 32.6616C8.50199 32.6616 3 27.08 3 27.08C3 27.08 8.50199 21.4985 15.288 21.4985Z" stroke="#D6A994" stroke-width="1.1106" stroke-miterlimit="10"/>
<path d="M39.864 21.4985C33.078 21.4985 27.576 27.08 27.576 27.08C27.576 27.08 33.077 32.6616 39.864 32.6616C46.65 32.6616 52.152 27.08 52.152 27.08C52.152 27.08 46.65 21.4985 39.864 21.4985Z" stroke="#D6A994" stroke-width="1.1106" stroke-miterlimit="10"/>
<path d="M32.349 14.9967C27.55 19.8335 27.577 27.7008 27.577 27.7008C27.577 27.7008 35.383 27.727 40.182 22.8913C44.981 18.0546 44.955 10.1873 44.955 10.1873C44.955 10.1873 37.147 10.16 32.349 14.9967Z" stroke="#D6A994" stroke-width="1.1106" stroke-miterlimit="10"/>
<path d="M22.469 14.9967C27.268 19.8335 27.242 27.7008 27.242 27.7008C27.242 27.7008 19.436 27.727 14.637 22.8913C9.838 18.0546 9.86502 10.1873 9.86502 10.1873C9.86502 10.1873 17.671 10.16 22.469 14.9967Z" stroke="#D6A994" stroke-width="1.1106" stroke-miterlimit="10"/>
<path d="M13.4115 39.3103C13.4584 39.3865 13.4818 39.448 13.4818 39.4949C13.4818 39.5476 13.4671 39.5974 13.4379 39.6443C13.4086 39.6912 13.3705 39.738 13.3236 39.7849C13.2826 39.8259 13.2386 39.8669 13.1918 39.908C13.1449 39.949 13.1068 39.9929 13.0775 40.0398C13.0248 40.1218 12.9779 40.2039 12.9369 40.2859C12.9017 40.3621 12.8607 40.4324 12.8138 40.4968C12.7728 40.5613 12.723 40.614 12.6644 40.655C12.6117 40.696 12.5414 40.7166 12.4535 40.7166C12.4242 40.7166 12.389 40.7107 12.348 40.699C12.3129 40.6873 12.2777 40.6814 12.2425 40.6814C12.1781 40.6814 12.1195 40.7019 12.0668 40.7429C12.0199 40.7781 11.9642 40.8044 11.8998 40.822C11.8177 40.8455 11.7445 40.866 11.68 40.8835C11.6214 40.9011 11.5423 40.9246 11.4427 40.9539H11.3373C11.2728 40.9539 11.2084 40.9714 11.1439 41.0066C11.0853 41.0417 10.9886 41.0916 10.8539 41.156C10.7836 41.1794 10.6898 41.1882 10.5726 41.1824C10.4613 41.1765 10.3353 41.1882 10.1947 41.2175C10.1771 41.2234 10.1537 41.2468 10.1244 41.2878C10.0951 41.323 10.0746 41.3435 10.0629 41.3494C9.98082 41.3728 9.88707 41.3933 9.7816 41.4109C9.67613 41.4226 9.57652 41.446 9.48277 41.4812C9.39488 41.5105 9.31871 41.5574 9.25426 41.6218C9.19566 41.6863 9.16637 41.78 9.16637 41.9031C9.16637 41.9968 9.1898 42.1111 9.23668 42.2458C9.28355 42.3748 9.33336 42.5037 9.38609 42.6326C9.44469 42.7556 9.50035 42.864 9.55309 42.9578C9.61168 43.0515 9.64977 43.1072 9.66734 43.1248C9.72008 43.1833 9.76695 43.2478 9.80797 43.3181C9.84898 43.3826 9.89 43.4558 9.93102 43.5378C9.97789 43.614 10.0248 43.696 10.0716 43.7839C10.1244 43.866 10.1888 43.9509 10.265 44.0388C10.3119 44.0974 10.3646 44.1531 10.4232 44.2058C10.4818 44.2585 10.5375 44.3083 10.5902 44.3552C10.6429 44.4021 10.6869 44.449 10.722 44.4958C10.763 44.5427 10.7836 44.5867 10.7836 44.6277C10.807 44.698 10.8832 44.7859 11.0121 44.8914C11.141 44.9968 11.2611 45.1287 11.3724 45.2869C11.3841 45.3044 11.4076 45.3308 11.4427 45.366C11.4779 45.3953 11.513 45.4275 11.5482 45.4626C11.5892 45.4978 11.6244 45.5359 11.6537 45.5769C11.6888 45.6121 11.7064 45.6472 11.7064 45.6824C11.7064 45.7292 11.7298 45.7615 11.7767 45.7791C11.8236 45.7966 11.8646 45.8289 11.8998 45.8757C11.9291 45.9109 11.9496 45.9519 11.9613 45.9988C11.973 46.0457 11.9964 46.0925 12.0316 46.1394C12.1019 46.2449 12.1839 46.3591 12.2777 46.4822C12.3773 46.5994 12.4271 46.7458 12.4271 46.9216C12.4271 47.033 12.4037 47.1443 12.3568 47.2556C12.3451 47.2849 12.3216 47.3025 12.2865 47.3083C12.2572 47.3142 12.2396 47.3406 12.2337 47.3875C12.2103 47.4695 12.1869 47.5486 12.1634 47.6248C12.14 47.6951 12.0961 47.7683 12.0316 47.8445C11.9671 47.9207 11.8939 47.991 11.8119 48.0554C11.7298 48.1199 11.6478 48.2019 11.5658 48.3015C11.5072 48.3777 11.4457 48.4451 11.3812 48.5037C11.3168 48.5623 11.2435 48.6238 11.1615 48.6882C11.0853 48.7527 10.9945 48.8259 10.889 48.908C10.7836 48.99 10.6605 49.0955 10.5199 49.2244C10.473 49.2712 10.4115 49.3269 10.3353 49.3914C10.2591 49.45 10.1449 49.5027 9.99254 49.5496C9.91051 49.5789 9.79918 49.6023 9.65855 49.6199C9.51793 49.6375 9.35973 49.655 9.18394 49.6726C9.00816 49.6843 8.82066 49.696 8.62144 49.7078C8.42223 49.7195 8.22301 49.7312 8.02379 49.7429C7.8773 49.7605 7.72789 49.7781 7.57555 49.7957C7.4232 49.8074 7.26793 49.8132 7.10973 49.8132C6.86363 49.8132 6.6732 49.7986 6.53844 49.7693C6.40953 49.7341 6.34508 49.6492 6.34508 49.5144C6.34508 49.4558 6.3568 49.4031 6.38023 49.3562C6.40953 49.3035 6.44469 49.2566 6.4857 49.2156C6.52672 49.1687 6.56773 49.1248 6.60875 49.0837C6.64977 49.0427 6.68492 49.0017 6.71422 48.9607C6.77281 48.8728 6.82555 48.7966 6.87242 48.7322C6.9193 48.6619 6.96617 48.6033 7.01305 48.5564C7.06578 48.5095 7.11852 48.4744 7.17125 48.4509C7.22398 48.4275 7.28844 48.4158 7.36461 48.4158C7.44664 48.4158 7.53453 48.4246 7.62828 48.4421C7.72203 48.4539 7.81285 48.4714 7.90074 48.4949C7.99449 48.5125 8.07945 48.53 8.15562 48.5476C8.2318 48.5593 8.29332 48.5652 8.34019 48.5652C8.41637 48.5652 8.48961 48.5564 8.55992 48.5388C8.63609 48.5154 8.72105 48.5037 8.8148 48.5037C8.91441 48.5037 9.02281 48.5154 9.14 48.5388C9.26305 48.5564 9.37437 48.5652 9.47398 48.5652C9.62047 48.5652 9.79039 48.5564 9.98375 48.5388C10.1771 48.5154 10.3617 48.4802 10.5375 48.4333C10.7132 48.3865 10.8597 48.3279 10.9769 48.2576C11.1 48.1814 11.1615 48.0935 11.1615 47.9939C11.1615 47.9412 11.141 47.8679 11.1 47.7742C11.0589 47.6804 11.0062 47.5779 10.9418 47.4666C10.8832 47.3552 10.8158 47.241 10.7396 47.1238C10.6634 47.0066 10.5902 46.8953 10.5199 46.7898C10.4847 46.7429 10.4408 46.7019 10.388 46.6667C10.3353 46.6257 10.2943 46.5818 10.265 46.5349C10.2298 46.4822 10.2064 46.4265 10.1947 46.3679C10.183 46.3035 10.1595 46.2478 10.1244 46.2009C10.0599 46.113 9.98082 46.0339 9.88707 45.9636C9.79918 45.8875 9.72594 45.8142 9.66734 45.7439C9.56773 45.6267 9.47398 45.4919 9.38609 45.3396C9.2982 45.1873 9.19566 45.0378 9.07848 44.8914C9.04332 44.8503 9.01695 44.821 8.99937 44.8035C8.9818 44.7859 8.94371 44.7273 8.88512 44.6277C8.82066 44.5457 8.74156 44.4695 8.64781 44.3992C8.55992 44.3289 8.48375 44.2527 8.4193 44.1707C8.39586 44.1414 8.38414 44.1091 8.38414 44.074C8.39 44.033 8.38121 44.0007 8.35777 43.9773C8.28746 43.907 8.20836 43.8337 8.12047 43.7576C8.03258 43.6755 7.98863 43.5701 7.98863 43.4412C7.98863 43.3533 7.96227 43.2419 7.90953 43.1072C7.86266 42.9724 7.83922 42.8201 7.83922 42.6501C7.83922 42.533 7.86559 42.4392 7.91832 42.3689C7.97105 42.2986 8.00621 42.2224 8.02379 42.1404C8.04723 42.0935 8.05894 42.0496 8.05894 42.0085C8.05894 41.9617 8.07066 41.9148 8.0941 41.8679C8.10582 41.8562 8.12926 41.8474 8.16441 41.8416C8.19957 41.8298 8.22008 41.8181 8.22594 41.8064C8.24937 41.7537 8.27281 41.7126 8.29625 41.6833C8.32555 41.6482 8.3607 41.613 8.40172 41.5779C8.44273 41.5369 8.49547 41.49 8.55992 41.4373C8.62437 41.3845 8.70934 41.3113 8.8148 41.2175C8.83238 41.2058 8.8441 41.1853 8.84996 41.156C8.85582 41.1208 8.86754 41.0974 8.88512 41.0857C8.92613 41.0505 8.97008 41.0271 9.01695 41.0154C9.06383 41.0037 9.10484 40.9832 9.14 40.9539C9.2982 40.8484 9.4359 40.7576 9.55309 40.6814C9.67613 40.6052 9.79039 40.5378 9.89586 40.4792C10.0013 40.4148 10.1068 40.3591 10.2123 40.3123C10.3177 40.2654 10.4408 40.2185 10.5814 40.1716L11.7679 39.7761C11.8324 39.7117 11.9173 39.6765 12.0228 39.6707C12.1283 39.6589 12.2396 39.6296 12.3568 39.5828C12.474 39.5183 12.6234 39.4656 12.805 39.4246C12.9867 39.3777 13.1888 39.3396 13.4115 39.3103ZM18.2806 43.573C18.2689 43.7957 18.2367 43.9978 18.1839 44.1794C18.1371 44.3611 18.0755 44.5281 17.9994 44.6804C17.9291 44.8328 17.85 44.9734 17.7621 45.1023C17.6742 45.2312 17.5834 45.3572 17.4896 45.4802C17.431 45.5564 17.3841 45.6238 17.349 45.6824C17.3138 45.7351 17.2787 45.782 17.2435 45.823C17.2084 45.864 17.1703 45.8992 17.1293 45.9285C17.0882 45.9578 17.0326 45.9812 16.9623 45.9988C16.9154 46.0105 16.8597 46.0251 16.7953 46.0427C16.7367 46.0544 16.6839 46.0837 16.6371 46.1306C16.6254 46.1423 16.6136 46.1658 16.6019 46.2009C16.5902 46.2302 16.5785 46.2507 16.5668 46.2625C16.5199 46.2976 16.4642 46.321 16.3998 46.3328C16.3412 46.3386 16.2884 46.3591 16.2416 46.3943C16.1947 46.4353 16.1625 46.4705 16.1449 46.4998C16.1273 46.5291 16.0951 46.5583 16.0482 46.5876C16.0013 46.6169 15.9457 46.6404 15.8812 46.658C15.8226 46.6697 15.767 46.6902 15.7142 46.7195C15.6732 46.7488 15.641 46.7839 15.6175 46.825C15.6 46.8601 15.5677 46.8923 15.5209 46.9216C15.4271 46.9861 15.348 47.0359 15.2836 47.071C15.2191 47.1003 15.1664 47.1443 15.1254 47.2029C15.0902 47.2615 15.0638 47.3464 15.0462 47.4578C15.0287 47.5691 15.0199 47.739 15.0199 47.9675C15.0199 48.1023 15.0228 48.2312 15.0287 48.3542C15.0404 48.4773 15.0521 48.5681 15.0638 48.6267C15.0697 48.6443 15.0873 48.6853 15.1166 48.7498C15.1517 48.8083 15.1927 48.8728 15.2396 48.9431C15.2923 49.0134 15.3509 49.0779 15.4154 49.1365C15.4798 49.1892 15.5472 49.2156 15.6175 49.2156C15.723 49.2156 15.8168 49.1775 15.8988 49.1013C15.9808 49.0193 16.0716 48.949 16.1712 48.8904C16.2474 48.8435 16.347 48.782 16.4701 48.7058C16.5931 48.6238 16.6927 48.533 16.7689 48.4333C16.7923 48.3982 16.8216 48.3513 16.8568 48.2927C16.892 48.2283 16.93 48.1667 16.9711 48.1082C17.0179 48.0437 17.0677 47.991 17.1205 47.95C17.1791 47.9031 17.2435 47.8796 17.3138 47.8796C17.3431 47.8796 17.3812 47.8884 17.4281 47.906C17.4222 48.0056 17.39 48.0964 17.3314 48.1785C17.2787 48.2605 17.2171 48.3367 17.1468 48.407C17.0824 48.4714 17.0238 48.53 16.9711 48.5828C16.9183 48.6355 16.892 48.6794 16.892 48.7146C16.892 48.7263 16.892 48.7439 16.892 48.7673C16.8978 48.7849 16.9007 48.7996 16.9007 48.8113C16.9007 48.8406 16.8656 48.864 16.7953 48.8816C16.7308 48.8933 16.6781 48.9167 16.6371 48.9519C16.6078 48.9812 16.5843 49.0164 16.5668 49.0574C16.555 49.0925 16.5345 49.1218 16.5052 49.1453C16.4408 49.198 16.3734 49.2449 16.3031 49.2859C16.2328 49.3269 16.1683 49.3708 16.1097 49.4177C16.0453 49.4763 15.9779 49.5437 15.9076 49.6199C15.8431 49.696 15.7787 49.7664 15.7142 49.8308C15.6498 49.9011 15.5853 49.9597 15.5209 50.0066C15.4623 50.0535 15.4066 50.0769 15.3539 50.0769C15.3246 50.0769 15.2923 50.071 15.2572 50.0593C15.2279 50.0535 15.1986 50.0505 15.1693 50.0505C15.14 50.0505 15.1166 50.0623 15.099 50.0857C15.0814 50.1091 15.058 50.1208 15.0287 50.1208C14.9759 50.1208 14.9144 50.0945 14.8441 50.0417C14.7738 49.9949 14.7152 49.9597 14.6683 49.9363C14.5863 49.907 14.4896 49.8865 14.3783 49.8748C14.267 49.8689 14.1879 49.8484 14.141 49.8132C14.1 49.7781 14.0677 49.7136 14.0443 49.6199C14.0267 49.5261 13.9945 49.4353 13.9476 49.3474C13.9007 49.2654 13.848 49.198 13.7894 49.1453C13.7308 49.0925 13.6957 49.0515 13.6839 49.0222C13.6722 48.9871 13.6634 48.9402 13.6576 48.8816C13.6576 48.8171 13.6576 48.7527 13.6576 48.6882C13.6576 48.6179 13.6546 48.5505 13.6488 48.4861C13.6429 48.4158 13.6312 48.3542 13.6136 48.3015C13.6078 48.2839 13.5961 48.2693 13.5785 48.2576C13.5609 48.24 13.5521 48.2078 13.5521 48.1609C13.5521 48.1667 13.5609 48.155 13.5785 48.1257C13.6019 48.0906 13.6136 48.0613 13.6136 48.0378C13.6429 47.575 13.6839 47.1355 13.7367 46.7195C13.7953 46.2976 13.8685 45.9138 13.9564 45.5681C14.0443 45.2166 14.1498 44.9119 14.2728 44.6541C14.4017 44.3904 14.5541 44.1824 14.7298 44.03C14.7591 44.0066 14.7914 43.9978 14.8265 44.0037C14.8675 44.0037 14.9027 43.9919 14.932 43.9685C14.9437 43.9568 14.9525 43.9363 14.9584 43.907C14.9701 43.8718 14.9818 43.8484 14.9935 43.8367C15.0228 43.8132 15.055 43.8015 15.0902 43.8015C15.1312 43.8015 15.1634 43.7898 15.1869 43.7664C15.2045 43.7546 15.2279 43.7312 15.2572 43.696C15.2865 43.6609 15.3158 43.6228 15.3451 43.5818C15.3744 43.5408 15.4037 43.5027 15.433 43.4675C15.4623 43.4265 15.4916 43.3972 15.5209 43.3796C15.5912 43.3328 15.6761 43.3005 15.7757 43.283C15.8754 43.2654 15.9662 43.2302 16.0482 43.1775C16.0716 43.1658 16.098 43.1423 16.1273 43.1072C16.1566 43.072 16.1859 43.0369 16.2152 43.0017C16.2504 42.9607 16.2826 42.9255 16.3119 42.8962C16.3412 42.8669 16.3705 42.8523 16.3998 42.8523C16.4115 42.8523 16.4261 42.8552 16.4437 42.8611C16.4613 42.8611 16.4759 42.8611 16.4877 42.8611C16.4994 42.8611 16.5433 42.8259 16.6195 42.7556C16.7015 42.6853 16.7748 42.6296 16.8392 42.5886C16.8568 42.5769 16.8656 42.5564 16.8656 42.5271C16.8714 42.4919 16.8832 42.4685 16.9007 42.4568C16.93 42.4333 16.9769 42.4158 17.0414 42.4041C17.1058 42.3865 17.1673 42.3601 17.2259 42.325C17.2728 42.2957 17.308 42.2664 17.3314 42.2371C17.3548 42.2078 17.4076 42.1931 17.4896 42.1931C17.7005 42.2107 17.8617 42.2488 17.973 42.3074C18.0843 42.366 18.1605 42.4509 18.2015 42.5623C18.2484 42.6677 18.2718 42.8054 18.2718 42.9753C18.2777 43.1394 18.2806 43.3386 18.2806 43.573ZM17.0326 43.573C17.0267 43.5613 17.0033 43.5408 16.9623 43.5115C16.9271 43.4763 16.9066 43.4529 16.9007 43.4412C16.8832 43.4119 16.8744 43.3826 16.8744 43.3533C16.8744 43.3181 16.8714 43.2859 16.8656 43.2566C16.8597 43.2273 16.848 43.2039 16.8304 43.1863C16.8187 43.1687 16.7923 43.1599 16.7513 43.1599C16.7162 43.1599 16.6634 43.1804 16.5931 43.2214C16.5287 43.2566 16.4584 43.3005 16.3822 43.3533C16.3119 43.406 16.2445 43.4587 16.18 43.5115C16.1156 43.5642 16.0716 43.6052 16.0482 43.6345C16.0189 43.6697 15.9779 43.7341 15.9252 43.8279C15.8783 43.9158 15.8285 44.0066 15.7757 44.1003C15.7289 44.1941 15.6849 44.2761 15.6439 44.3464C15.6029 44.4167 15.5795 44.4519 15.5736 44.4519C15.5736 44.4636 15.5736 44.4783 15.5736 44.4958C15.5795 44.5134 15.5824 44.5281 15.5824 44.5398C15.5824 44.575 15.5589 44.6072 15.5121 44.6365C15.4652 44.6599 15.4418 44.7097 15.4418 44.7859C15.4418 44.8152 15.4447 44.8503 15.4505 44.8914C15.4564 44.9265 15.4593 44.9587 15.4593 44.988C15.4593 45.0349 15.4388 45.0818 15.3978 45.1287C15.3627 45.1755 15.3392 45.2253 15.3275 45.2781C15.2748 45.4656 15.222 45.6677 15.1693 45.8845C15.1166 46.0955 15.0902 46.3035 15.0902 46.5085C15.0902 46.573 15.0961 46.6287 15.1078 46.6755C15.1254 46.7166 15.1722 46.7371 15.2484 46.7371C15.3011 46.7371 15.3392 46.7283 15.3627 46.7107C15.392 46.6873 15.4154 46.6609 15.433 46.6316C15.4505 46.5964 15.4652 46.5642 15.4769 46.5349C15.4886 46.5056 15.5033 46.4822 15.5209 46.4646C15.597 46.3943 15.6849 46.321 15.7845 46.2449C15.8841 46.1687 15.9837 46.0896 16.0834 46.0076C16.1888 45.9197 16.2884 45.8318 16.3822 45.7439C16.4818 45.656 16.5668 45.5681 16.6371 45.4802C16.6546 45.4509 16.6722 45.4041 16.6898 45.3396C16.7074 45.2693 16.7337 45.2048 16.7689 45.1462C16.8568 44.9939 16.9242 44.7976 16.9711 44.5574C17.0238 44.3171 17.0502 44.0535 17.0502 43.7664C17.0502 43.7371 17.0472 43.7048 17.0414 43.6697C17.0414 43.6345 17.0384 43.6023 17.0326 43.573ZM25.3558 47.8005C25.3558 47.8943 25.3295 47.9792 25.2767 48.0554C25.224 48.1257 25.1566 48.196 25.0746 48.2664C24.9925 48.3367 24.9017 48.407 24.8021 48.4773C24.7025 48.5476 24.6058 48.6267 24.5121 48.7146C24.4828 48.738 24.4593 48.7732 24.4418 48.8201C24.4242 48.8611 24.4007 48.8904 24.3714 48.908C24.3421 48.9373 24.3099 48.949 24.2748 48.9431C24.2396 48.9373 24.2074 48.949 24.1781 48.9783C24.1371 49.0193 24.0961 49.0779 24.055 49.1541C24.0199 49.2244 23.973 49.2976 23.9144 49.3738C23.8968 49.4031 23.85 49.4617 23.7738 49.5496C23.7035 49.6375 23.6185 49.7283 23.5189 49.822C23.4252 49.9158 23.3255 50.0007 23.2201 50.0769C23.1205 50.1531 23.0296 50.1912 22.9476 50.1912C22.9007 50.1912 22.8656 50.1794 22.8421 50.156C22.8187 50.1326 22.807 50.1062 22.807 50.0769C22.807 50.0417 22.8158 50.0007 22.8334 49.9539C22.8509 49.907 22.8597 49.8455 22.8597 49.7693C22.8597 49.6404 22.8392 49.532 22.7982 49.4441C22.7572 49.3562 22.7367 49.2888 22.7367 49.2419C22.7425 49.1189 22.7748 48.9841 22.8334 48.8376C22.8978 48.6912 22.93 48.5417 22.93 48.3894C22.93 48.3074 22.9183 48.2312 22.8949 48.1609C22.8714 48.0847 22.8597 48.0056 22.8597 47.9236C22.8597 47.8416 22.8802 47.7566 22.9212 47.6687C22.9623 47.575 22.9886 47.4871 23.0004 47.405C23.0121 47.3113 23.0209 47.2175 23.0267 47.1238C23.0326 47.03 23.0355 46.9363 23.0355 46.8425V46.5964C23.0355 46.4675 23.0443 46.3503 23.0619 46.2449C23.0795 46.1394 23.097 46.0398 23.1146 45.946C23.138 45.8523 23.1615 45.7585 23.1849 45.6648C23.2142 45.571 23.2377 45.4714 23.2552 45.366C23.2787 45.2253 23.2933 45.0847 23.2992 44.9441C23.305 44.8035 23.308 44.6628 23.308 44.5222C23.3138 44.3816 23.3197 44.2468 23.3255 44.1179C23.3373 43.9832 23.3578 43.8542 23.3871 43.7312C23.3695 43.7253 23.3431 43.7224 23.308 43.7224C23.2318 43.7224 23.1673 43.7458 23.1146 43.7927C23.0619 43.8337 23.015 43.8835 22.974 43.9421C22.9388 43.9949 22.9066 44.0535 22.8773 44.1179C22.8539 44.1765 22.8275 44.2234 22.7982 44.2585C22.7748 44.2878 22.7425 44.3083 22.7015 44.3201C22.6605 44.3318 22.6283 44.3523 22.6048 44.3816C22.5755 44.4167 22.5521 44.4607 22.5345 44.5134C22.517 44.5662 22.4964 44.6101 22.473 44.6453C22.4613 44.6687 22.4349 44.6833 22.3939 44.6892C22.3587 44.6892 22.3412 44.7039 22.3412 44.7332C22.3412 44.7449 22.3412 44.7595 22.3412 44.7771C22.347 44.7947 22.35 44.8093 22.35 44.821C22.35 44.8445 22.3324 44.8738 22.2972 44.9089C22.2621 44.9382 22.2211 44.9705 22.1742 45.0056C22.1332 45.0408 22.0951 45.0759 22.0599 45.1111C22.0248 45.1462 22.0072 45.1755 22.0072 45.199C22.0072 45.2107 22.0072 45.2253 22.0072 45.2429C22.013 45.2605 22.016 45.2751 22.016 45.2869C22.016 45.2986 21.9955 45.3337 21.9545 45.3923C21.9134 45.4509 21.8636 45.5154 21.805 45.5857C21.7464 45.656 21.6879 45.7263 21.6293 45.7966C21.5707 45.8669 21.5238 45.9197 21.4886 45.9548C21.3832 46.0603 21.307 46.1599 21.2601 46.2537C21.2132 46.3474 21.1781 46.4382 21.1546 46.5261C21.1371 46.6082 21.1195 46.6902 21.1019 46.7722C21.0902 46.8542 21.0668 46.9333 21.0316 47.0095C21.0199 47.0212 20.9964 47.033 20.9613 47.0447C20.9261 47.0505 20.9027 47.0593 20.891 47.071C20.8617 47.1355 20.8353 47.2058 20.8119 47.282C20.7884 47.3582 20.7504 47.4402 20.6976 47.5281C20.6859 47.5457 20.6625 47.5691 20.6273 47.5984C20.5921 47.6277 20.5746 47.6511 20.5746 47.6687C20.5453 47.7332 20.5218 47.8093 20.5043 47.8972C20.4867 47.9851 20.472 48.0759 20.4603 48.1697C20.4486 48.2634 20.4398 48.3572 20.4339 48.4509C20.4281 48.5388 20.4252 48.615 20.4252 48.6794C20.4252 48.7439 20.4398 48.7937 20.4691 48.8289C20.4984 48.864 20.513 48.9167 20.513 48.9871C20.513 49.0281 20.4984 49.0603 20.4691 49.0837C20.4457 49.1072 20.4134 49.1306 20.3724 49.1541C20.3373 49.1716 20.2933 49.1921 20.2406 49.2156C20.1937 49.239 20.1498 49.2683 20.1087 49.3035C19.974 49.4207 19.8597 49.5261 19.766 49.6199C19.6722 49.7078 19.5873 49.7898 19.5111 49.866C19.4349 49.948 19.3675 50.0212 19.3089 50.0857C19.2504 50.156 19.1888 50.2234 19.1244 50.2878C19.0834 50.282 19.0629 50.2615 19.0629 50.2263C19.0629 50.1619 19.0951 50.0974 19.1595 50.033C19.224 49.9685 19.2562 49.9099 19.2562 49.8572C19.2562 49.8162 19.2445 49.7839 19.2211 49.7605C19.2035 49.7312 19.1947 49.6902 19.1947 49.6375C19.1947 49.6199 19.1976 49.5847 19.2035 49.532C19.2152 49.4734 19.2269 49.4089 19.2386 49.3386C19.2504 49.2625 19.2621 49.1863 19.2738 49.1101C19.2914 49.0339 19.306 48.9666 19.3177 48.908C19.3412 48.8083 19.3705 48.7087 19.4056 48.6091C19.4466 48.5037 19.4847 48.3982 19.5199 48.2927C19.5609 48.1814 19.5931 48.0701 19.6166 47.9587C19.6459 47.8474 19.6605 47.7332 19.6605 47.616C19.6605 47.5632 19.6576 47.5193 19.6517 47.4841C19.6459 47.4431 19.6429 47.405 19.6429 47.3699C19.6429 47.3171 19.6488 47.2439 19.6605 47.1501C19.6722 47.0505 19.6839 46.9421 19.6957 46.825C19.7132 46.7078 19.7279 46.5906 19.7396 46.4734C19.7572 46.3562 19.7718 46.2507 19.7836 46.157C19.8011 45.9519 19.8099 45.7439 19.8099 45.533C19.8099 45.322 19.8216 45.114 19.8451 44.9089C19.8685 44.7214 19.9007 44.5339 19.9418 44.3464C19.9886 44.1589 20.0121 43.9714 20.0121 43.7839C20.0121 43.6667 20.0004 43.5613 19.9769 43.4675C19.9066 43.4792 19.8363 43.5232 19.766 43.5994C19.6957 43.6755 19.6283 43.7576 19.5638 43.8455C19.5052 43.9333 19.4525 44.0125 19.4056 44.0828C19.3587 44.1531 19.3236 44.1882 19.3002 44.1882C19.2884 44.1882 19.2738 44.1882 19.2562 44.1882C19.2386 44.1824 19.224 44.1794 19.2123 44.1794C19.183 44.1794 19.1595 44.2117 19.142 44.2761C19.1244 44.3406 19.1009 44.4109 19.0716 44.4871C19.0423 44.5574 19.0013 44.6248 18.9486 44.6892C18.9017 44.7537 18.8343 44.7859 18.7464 44.7859C18.723 44.7859 18.6791 44.7771 18.6146 44.7595C18.5502 44.7419 18.5179 44.7009 18.5179 44.6365C18.5179 44.5955 18.5296 44.5574 18.5531 44.5222C18.5824 44.4871 18.6146 44.4548 18.6498 44.4255C18.6908 44.3962 18.7289 44.3699 18.764 44.3464C18.805 44.3171 18.8373 44.2878 18.8607 44.2585C18.8783 44.2292 18.8871 44.197 18.8871 44.1619C18.8929 44.1208 18.9046 44.0857 18.9222 44.0564C19.0629 43.8806 19.2298 43.7078 19.4232 43.5378C19.6224 43.3679 19.807 43.1892 19.9769 43.0017C20.0004 42.9783 20.0091 42.946 20.0033 42.905C20.0033 42.864 20.0179 42.8318 20.0472 42.8083C20.0707 42.7849 20.1029 42.7761 20.1439 42.782C20.1849 42.782 20.2171 42.7703 20.2406 42.7468C20.2582 42.7292 20.2728 42.697 20.2845 42.6501C20.3021 42.6033 20.3255 42.5564 20.3548 42.5095C20.39 42.4568 20.431 42.4128 20.4779 42.3777C20.5306 42.3425 20.6009 42.325 20.6888 42.325C20.7357 42.325 20.7855 42.3337 20.8382 42.3513C20.8968 42.363 20.9496 42.3835 20.9964 42.4128C21.0492 42.4363 21.0902 42.4656 21.1195 42.5007C21.1546 42.53 21.1722 42.5623 21.1722 42.5974C21.1722 42.656 21.1576 42.7322 21.1283 42.8259C21.1048 42.9197 21.0931 43.0222 21.0931 43.1335C21.0931 43.2039 21.1048 43.2712 21.1283 43.3357C21.1517 43.3943 21.1634 43.4382 21.1634 43.4675C21.1517 43.5437 21.1254 43.6199 21.0843 43.696C21.0433 43.7664 21.0228 43.8601 21.0228 43.9773C21.0228 44.03 21.0228 44.0886 21.0228 44.1531C21.0287 44.2175 21.0316 44.282 21.0316 44.3464C21.0316 44.4519 21.017 44.572 20.9877 44.7068C20.9584 44.8357 20.9261 44.9617 20.891 45.0847C20.8617 45.2078 20.8324 45.322 20.8031 45.4275C20.7738 45.5271 20.7591 45.6033 20.7591 45.656C20.7591 45.7029 20.7796 45.7263 20.8207 45.7263C20.8793 45.7263 20.9554 45.6853 21.0492 45.6033C21.1429 45.5212 21.222 45.4421 21.2865 45.366C21.3099 45.3425 21.3216 45.3103 21.3216 45.2693C21.3275 45.2283 21.3392 45.196 21.3568 45.1726C21.3685 45.155 21.3949 45.1316 21.4359 45.1023C21.4828 45.0671 21.5296 45.032 21.5765 44.9968C21.6234 44.9617 21.6644 44.9294 21.6996 44.9001C21.7347 44.865 21.7523 44.8386 21.7523 44.821C21.7523 44.8093 21.7494 44.7947 21.7435 44.7771C21.7435 44.7595 21.7435 44.7449 21.7435 44.7332C21.7435 44.7039 21.764 44.6628 21.805 44.6101C21.8461 44.5574 21.8929 44.5017 21.9457 44.4431C21.9984 44.3787 22.0482 44.3171 22.0951 44.2585C22.1478 44.2 22.1859 44.1531 22.2093 44.1179C22.2328 44.0828 22.2416 44.0417 22.2357 43.9949C22.2357 43.9421 22.2474 43.8982 22.2709 43.863C22.3412 43.7693 22.4349 43.6638 22.5521 43.5466C22.6752 43.4294 22.7777 43.3386 22.8597 43.2742C22.9066 43.239 22.9535 43.2156 23.0004 43.2039C23.0472 43.1921 23.0912 43.1687 23.1322 43.1335C23.2201 43.0515 23.3021 42.9607 23.3783 42.8611C23.4545 42.7615 23.5306 42.6707 23.6068 42.5886C23.683 42.5007 23.7591 42.4275 23.8353 42.3689C23.9173 42.3103 24.0082 42.281 24.1078 42.281C24.1371 42.281 24.181 42.2957 24.2396 42.325C24.2982 42.3542 24.3568 42.3953 24.4154 42.448C24.474 42.5007 24.5238 42.5623 24.5648 42.6326C24.6117 42.697 24.6351 42.7673 24.6351 42.8435C24.6351 42.8904 24.6263 42.9519 24.6087 43.0281C24.5912 43.0984 24.5795 43.1804 24.5736 43.2742C24.556 43.4851 24.5355 43.6814 24.5121 43.863C24.4945 44.0447 24.4711 44.241 24.4418 44.4519C24.4183 44.6101 24.4037 44.7625 24.3978 44.9089C24.3978 45.0496 24.389 45.1609 24.3714 45.2429C24.3421 45.3601 24.2953 45.4744 24.2308 45.5857C24.1722 45.697 24.1429 45.8289 24.1429 45.9812C24.1429 46.0164 24.1459 46.0544 24.1517 46.0955C24.1576 46.1365 24.1664 46.1804 24.1781 46.2273C24.1839 46.2449 24.1927 46.2595 24.2045 46.2712C24.222 46.2771 24.2367 46.2888 24.2484 46.3064C24.266 46.3181 24.2806 46.3386 24.2923 46.3679C24.3041 46.3972 24.3099 46.4412 24.3099 46.4998C24.3099 46.6521 24.2777 46.8044 24.2132 46.9568C24.1488 47.1033 24.1166 47.2615 24.1166 47.4314C24.1166 47.4958 24.1254 47.5632 24.1429 47.6335C24.1664 47.698 24.1781 47.7625 24.1781 47.8269C24.1781 47.9441 24.1517 48.0613 24.099 48.1785C24.0521 48.2898 24.0287 48.4128 24.0287 48.5476C24.0287 48.5769 24.0316 48.6033 24.0375 48.6267C24.0433 48.6501 24.0609 48.6619 24.0902 48.6619C24.2191 48.6619 24.3246 48.615 24.4066 48.5212C24.4945 48.4275 24.5765 48.325 24.6527 48.2136C24.7289 48.1023 24.808 47.9998 24.89 47.906C24.9779 47.8123 25.0834 47.7654 25.2064 47.7654C25.2591 47.7654 25.3089 47.7771 25.3558 47.8005ZM32.5892 39.3103C32.6361 39.3865 32.6595 39.448 32.6595 39.4949C32.6595 39.5476 32.6449 39.5974 32.6156 39.6443C32.5863 39.6912 32.5482 39.738 32.5013 39.7849C32.4603 39.8259 32.4164 39.8669 32.3695 39.908C32.3226 39.949 32.2845 39.9929 32.2552 40.0398C32.2025 40.1218 32.1556 40.2039 32.1146 40.2859C32.0795 40.3621 32.0384 40.4324 31.9916 40.4968C31.9505 40.5613 31.9007 40.614 31.8421 40.655C31.7894 40.696 31.7191 40.7166 31.6312 40.7166C31.6019 40.7166 31.5668 40.7107 31.5257 40.699C31.4906 40.6873 31.4554 40.6814 31.4203 40.6814C31.3558 40.6814 31.2972 40.7019 31.2445 40.7429C31.1976 40.7781 31.142 40.8044 31.0775 40.822C30.9955 40.8455 30.9222 40.866 30.8578 40.8835C30.7992 40.9011 30.7201 40.9246 30.6205 40.9539H30.515C30.4505 40.9539 30.3861 40.9714 30.3216 41.0066C30.263 41.0417 30.1664 41.0916 30.0316 41.156C29.9613 41.1794 29.8675 41.1882 29.7504 41.1824C29.639 41.1765 29.513 41.1882 29.3724 41.2175C29.3548 41.2234 29.3314 41.2468 29.3021 41.2878C29.2728 41.323 29.2523 41.3435 29.2406 41.3494C29.1586 41.3728 29.0648 41.3933 28.9593 41.4109C28.8539 41.4226 28.7543 41.446 28.6605 41.4812C28.5726 41.5105 28.4964 41.5574 28.432 41.6218C28.3734 41.6863 28.3441 41.78 28.3441 41.9031C28.3441 41.9968 28.3675 42.1111 28.4144 42.2458C28.4613 42.3748 28.5111 42.5037 28.5638 42.6326C28.6224 42.7556 28.6781 42.864 28.7308 42.9578C28.7894 43.0515 28.8275 43.1072 28.8451 43.1248C28.8978 43.1833 28.9447 43.2478 28.9857 43.3181C29.0267 43.3826 29.0677 43.4558 29.1087 43.5378C29.1556 43.614 29.2025 43.696 29.2494 43.7839C29.3021 43.866 29.3666 43.9509 29.4427 44.0388C29.4896 44.0974 29.5423 44.1531 29.6009 44.2058C29.6595 44.2585 29.7152 44.3083 29.7679 44.3552C29.8207 44.4021 29.8646 44.449 29.8998 44.4958C29.9408 44.5427 29.9613 44.5867 29.9613 44.6277C29.9847 44.698 30.0609 44.7859 30.1898 44.8914C30.3187 44.9968 30.4388 45.1287 30.5502 45.2869C30.5619 45.3044 30.5853 45.3308 30.6205 45.366C30.6556 45.3953 30.6908 45.4275 30.7259 45.4626C30.767 45.4978 30.8021 45.5359 30.8314 45.5769C30.8666 45.6121 30.8841 45.6472 30.8841 45.6824C30.8841 45.7292 30.9076 45.7615 30.9545 45.7791C31.0013 45.7966 31.0423 45.8289 31.0775 45.8757C31.1068 45.9109 31.1273 45.9519 31.139 45.9988C31.1507 46.0457 31.1742 46.0925 31.2093 46.1394C31.2796 46.2449 31.3617 46.3591 31.4554 46.4822C31.555 46.5994 31.6048 46.7458 31.6048 46.9216C31.6048 47.033 31.5814 47.1443 31.5345 47.2556C31.5228 47.2849 31.4994 47.3025 31.4642 47.3083C31.4349 47.3142 31.4173 47.3406 31.4115 47.3875C31.388 47.4695 31.3646 47.5486 31.3412 47.6248C31.3177 47.6951 31.2738 47.7683 31.2093 47.8445C31.1449 47.9207 31.0716 47.991 30.9896 48.0554C30.9076 48.1199 30.8255 48.2019 30.7435 48.3015C30.6849 48.3777 30.6234 48.4451 30.5589 48.5037C30.4945 48.5623 30.4212 48.6238 30.3392 48.6882C30.263 48.7527 30.1722 48.8259 30.0668 48.908C29.9613 48.99 29.8382 49.0955 29.6976 49.2244C29.6507 49.2712 29.5892 49.3269 29.513 49.3914C29.4369 49.45 29.3226 49.5027 29.1703 49.5496C29.0882 49.5789 28.9769 49.6023 28.8363 49.6199C28.6957 49.6375 28.5375 49.655 28.3617 49.6726C28.1859 49.6843 27.9984 49.696 27.7992 49.7078C27.6 49.7195 27.4007 49.7312 27.2015 49.7429C27.055 49.7605 26.9056 49.7781 26.7533 49.7957C26.6009 49.8074 26.4457 49.8132 26.2875 49.8132C26.0414 49.8132 25.8509 49.7986 25.7162 49.7693C25.5873 49.7341 25.5228 49.6492 25.5228 49.5144C25.5228 49.4558 25.5345 49.4031 25.558 49.3562C25.5873 49.3035 25.6224 49.2566 25.6634 49.2156C25.7045 49.1687 25.7455 49.1248 25.7865 49.0837C25.8275 49.0427 25.8627 49.0017 25.892 48.9607C25.9505 48.8728 26.0033 48.7966 26.0502 48.7322C26.097 48.6619 26.1439 48.6033 26.1908 48.5564C26.2435 48.5095 26.2962 48.4744 26.349 48.4509C26.4017 48.4275 26.4662 48.4158 26.5423 48.4158C26.6244 48.4158 26.7123 48.4246 26.806 48.4421C26.8998 48.4539 26.9906 48.4714 27.0785 48.4949C27.1722 48.5125 27.2572 48.53 27.3334 48.5476C27.4095 48.5593 27.4711 48.5652 27.5179 48.5652C27.5941 48.5652 27.6673 48.5564 27.7377 48.5388C27.8138 48.5154 27.8988 48.5037 27.9925 48.5037C28.0921 48.5037 28.2005 48.5154 28.3177 48.5388C28.4408 48.5564 28.5521 48.5652 28.6517 48.5652C28.7982 48.5652 28.9681 48.5564 29.1615 48.5388C29.3548 48.5154 29.5394 48.4802 29.7152 48.4333C29.891 48.3865 30.0375 48.3279 30.1546 48.2576C30.2777 48.1814 30.3392 48.0935 30.3392 47.9939C30.3392 47.9412 30.3187 47.8679 30.2777 47.7742C30.2367 47.6804 30.1839 47.5779 30.1195 47.4666C30.0609 47.3552 29.9935 47.241 29.9173 47.1238C29.8412 47.0066 29.7679 46.8953 29.6976 46.7898C29.6625 46.7429 29.6185 46.7019 29.5658 46.6667C29.513 46.6257 29.472 46.5818 29.4427 46.5349C29.4076 46.4822 29.3841 46.4265 29.3724 46.3679C29.3607 46.3035 29.3373 46.2478 29.3021 46.2009C29.2377 46.113 29.1586 46.0339 29.0648 45.9636C28.9769 45.8875 28.9037 45.8142 28.8451 45.7439C28.7455 45.6267 28.6517 45.4919 28.5638 45.3396C28.4759 45.1873 28.3734 45.0378 28.2562 44.8914C28.2211 44.8503 28.1947 44.821 28.1771 44.8035C28.1595 44.7859 28.1214 44.7273 28.0629 44.6277C27.9984 44.5457 27.9193 44.4695 27.8255 44.3992C27.7377 44.3289 27.6615 44.2527 27.597 44.1707C27.5736 44.1414 27.5619 44.1091 27.5619 44.074C27.5677 44.033 27.5589 44.0007 27.5355 43.9773C27.4652 43.907 27.3861 43.8337 27.2982 43.7576C27.2103 43.6755 27.1664 43.5701 27.1664 43.4412C27.1664 43.3533 27.14 43.2419 27.0873 43.1072C27.0404 42.9724 27.017 42.8201 27.017 42.6501C27.017 42.533 27.0433 42.4392 27.0961 42.3689C27.1488 42.2986 27.1839 42.2224 27.2015 42.1404C27.225 42.0935 27.2367 42.0496 27.2367 42.0085C27.2367 41.9617 27.2484 41.9148 27.2718 41.8679C27.2836 41.8562 27.307 41.8474 27.3421 41.8416C27.3773 41.8298 27.3978 41.8181 27.4037 41.8064C27.4271 41.7537 27.4505 41.7126 27.474 41.6833C27.5033 41.6482 27.5384 41.613 27.5795 41.5779C27.6205 41.5369 27.6732 41.49 27.7377 41.4373C27.8021 41.3845 27.8871 41.3113 27.9925 41.2175C28.0101 41.2058 28.0218 41.1853 28.0277 41.156C28.0336 41.1208 28.0453 41.0974 28.0629 41.0857C28.1039 41.0505 28.1478 41.0271 28.1947 41.0154C28.2416 41.0037 28.2826 40.9832 28.3177 40.9539C28.4759 40.8484 28.6136 40.7576 28.7308 40.6814C28.8539 40.6052 28.9681 40.5378 29.0736 40.4792C29.1791 40.4148 29.2845 40.3591 29.39 40.3123C29.4955 40.2654 29.6185 40.2185 29.7591 40.1716L30.9457 39.7761C31.0101 39.7117 31.0951 39.6765 31.2005 39.6707C31.306 39.6589 31.4173 39.6296 31.5345 39.5828C31.6517 39.5183 31.8011 39.4656 31.9828 39.4246C32.1644 39.3777 32.3666 39.3396 32.5892 39.3103ZM39.4535 47.5457C39.4535 47.5808 39.4418 47.616 39.4183 47.6511C39.4007 47.6863 39.3773 47.7185 39.348 47.7478C39.3187 47.7771 39.2894 47.8093 39.2601 47.8445C39.2308 47.8738 39.2074 47.906 39.1898 47.9412C39.1664 47.9822 39.1546 48.0261 39.1546 48.073C39.1605 48.1199 39.1488 48.1638 39.1195 48.2048C39.0843 48.2576 38.9877 48.3484 38.8295 48.4773C38.6771 48.6003 38.4896 48.7937 38.267 49.0574C38.2377 49.1042 38.2142 49.1599 38.1966 49.2244C38.1849 49.2888 38.1644 49.3445 38.1351 49.3914C38.1058 49.4382 38.0619 49.4939 38.0033 49.5583C37.9447 49.6169 37.8802 49.6726 37.8099 49.7253C37.7455 49.7781 37.6752 49.822 37.599 49.8572C37.5287 49.8982 37.4642 49.9187 37.4056 49.9187C37.3177 49.9187 37.2357 49.8982 37.1595 49.8572C37.0834 49.822 37.0101 49.7751 36.9398 49.7166C36.8695 49.6521 36.7992 49.5789 36.7289 49.4968C36.6586 49.4148 36.5824 49.3328 36.5004 49.2507C36.4593 49.2097 36.4212 49.1541 36.3861 49.0837C36.3568 49.0076 36.3246 48.9314 36.2894 48.8552C36.2601 48.7732 36.225 48.6941 36.1839 48.6179C36.1488 48.5359 36.1019 48.4656 36.0433 48.407C36.014 48.3718 35.9701 48.3425 35.9115 48.3191C35.8529 48.2898 35.8089 48.2517 35.7796 48.2048C35.7504 48.1638 35.7386 48.1228 35.7445 48.0818C35.7504 48.0349 35.7386 47.988 35.7093 47.9412C35.6859 47.9001 35.6361 47.8152 35.5599 47.6863C35.4837 47.5515 35.4017 47.4167 35.3138 47.282C35.2259 47.1472 35.1439 47.0271 35.0677 46.9216C34.9916 46.8103 34.9447 46.7546 34.9271 46.7546C34.8451 46.7546 34.7748 46.7957 34.7162 46.8777C34.6634 46.9539 34.6195 47.0476 34.5843 47.1589C34.555 47.2644 34.5316 47.3787 34.514 47.5017C34.5023 47.6189 34.4964 47.7156 34.4964 47.7917C34.4964 47.9089 34.4935 48.0144 34.4877 48.1082C34.4818 48.2019 34.4701 48.2957 34.4525 48.3894C34.4349 48.4773 34.4115 48.571 34.3822 48.6707C34.3529 48.7644 34.3148 48.8728 34.2679 48.9958C34.2328 49.0896 34.1976 49.1921 34.1625 49.3035C34.1273 49.4089 34.098 49.4792 34.0746 49.5144C34.057 49.5378 34.0248 49.5583 33.9779 49.5759C33.931 49.5876 33.8754 49.6111 33.8109 49.6462C33.7816 49.6638 33.7552 49.6902 33.7318 49.7253C33.7084 49.7546 33.682 49.781 33.6527 49.8044C33.6293 49.8337 33.597 49.8572 33.556 49.8748C33.515 49.8982 33.4652 49.9099 33.4066 49.9099C33.2132 49.9099 33.1166 49.8513 33.1166 49.7341C33.1166 49.6814 33.1283 49.6257 33.1517 49.5671C33.1752 49.5027 33.2015 49.4412 33.2308 49.3826C33.266 49.3181 33.2953 49.2595 33.3187 49.2068C33.3421 49.1482 33.3539 49.0955 33.3539 49.0486C33.3539 48.99 33.3451 48.9343 33.3275 48.8816C33.3099 48.823 33.2953 48.7527 33.2836 48.6707H33.2923C33.3041 48.6707 33.3158 48.6648 33.3275 48.6531C33.3392 48.6355 33.3451 48.6179 33.3451 48.6003C33.3451 48.5945 33.3392 48.5828 33.3275 48.5652C33.3158 48.5417 33.3011 48.5183 33.2836 48.4949C33.266 48.4714 33.2513 48.4509 33.2396 48.4333C33.2279 48.4158 33.222 48.407 33.222 48.407C33.222 48.3718 33.2337 48.3279 33.2572 48.2751C33.2865 48.2224 33.3187 48.1609 33.3539 48.0906C33.389 48.0203 33.4183 47.9441 33.4418 47.8621C33.4711 47.78 33.4857 47.6921 33.4857 47.5984C33.4857 47.5398 33.474 47.4812 33.4505 47.4226C33.4271 47.3582 33.4154 47.2908 33.4154 47.2205C33.4154 47.1794 33.4212 47.1238 33.433 47.0535C33.4505 46.9832 33.4711 46.907 33.4945 46.825C33.5238 46.7371 33.5531 46.655 33.5824 46.5789C33.6117 46.4968 33.6439 46.4265 33.6791 46.3679V46.3416C33.6791 46.2947 33.6673 46.2595 33.6439 46.2361C33.6263 46.2068 33.6175 46.1628 33.6175 46.1042C33.6175 46.075 33.6263 46.0398 33.6439 45.9988C33.6615 45.9519 33.6732 45.8992 33.6791 45.8406C33.6849 45.7 33.6937 45.571 33.7054 45.4539C33.723 45.3308 33.7406 45.2136 33.7582 45.1023C33.7757 44.991 33.7933 44.8796 33.8109 44.7683C33.8343 44.6511 33.8548 44.5281 33.8724 44.3992C33.8841 44.3347 33.9105 44.2644 33.9515 44.1882C33.9925 44.1062 34.013 44.0183 34.013 43.9246C34.013 43.8425 34.0013 43.7693 33.9779 43.7048C33.9545 43.6345 33.9427 43.5613 33.9427 43.4851C33.9896 43.3855 34.016 43.2976 34.0218 43.2214C34.0336 43.1394 34.0511 43.0281 34.0746 42.8875C34.1214 42.571 34.1771 42.24 34.2416 41.8943C34.306 41.5486 34.3382 41.238 34.3382 40.9626C34.3382 40.8865 34.3265 40.8279 34.3031 40.7869C34.2796 40.7458 34.2679 40.7019 34.2679 40.655C34.2738 40.5964 34.2914 40.5027 34.3207 40.3738C34.3558 40.2449 34.391 40.0955 34.4261 39.9255C34.4613 39.7498 34.4935 39.5593 34.5228 39.3542C34.5521 39.1433 34.5668 38.9265 34.5668 38.7039C34.5668 38.6218 34.5609 38.5662 34.5492 38.5369C34.5375 38.5017 34.517 38.4841 34.4877 38.4841C34.4408 38.4841 34.3793 38.5046 34.3031 38.5457C34.2269 38.5867 34.1507 38.6335 34.0746 38.6863C34.0629 38.698 34.0511 38.7214 34.0394 38.7566C34.0336 38.7917 34.0248 38.8123 34.013 38.8181C33.9662 38.8357 33.9193 38.8503 33.8724 38.8621C33.8314 38.8738 33.7875 38.9031 33.7406 38.95C33.7171 38.9792 33.7084 39.0027 33.7142 39.0203C33.7201 39.0378 33.7084 39.0583 33.6791 39.0818C33.6498 39.1052 33.6234 39.1228 33.6 39.1345C33.5765 39.1404 33.5589 39.1667 33.5472 39.2136C33.5414 39.2429 33.5296 39.2781 33.5121 39.3191C33.5004 39.3601 33.4798 39.4011 33.4505 39.4421C33.4271 39.4773 33.3978 39.5095 33.3627 39.5388C33.3334 39.5681 33.2982 39.5828 33.2572 39.5828C33.2162 39.5828 33.1781 39.571 33.1429 39.5476C33.1136 39.5183 33.099 39.4568 33.099 39.363C33.099 39.2986 33.1048 39.2429 33.1166 39.196C33.1283 39.1433 33.14 39.1023 33.1517 39.073C33.1693 39.0378 33.1898 39.0085 33.2132 38.9851V38.9939H33.2308C33.2308 38.9939 33.2543 38.9705 33.3011 38.9236C33.348 38.8767 33.4066 38.8181 33.4769 38.7478C33.5472 38.6775 33.6234 38.6013 33.7054 38.5193C33.7875 38.4373 33.8666 38.3611 33.9427 38.2908C33.9662 38.2673 33.9984 38.2585 34.0394 38.2644C34.0804 38.2703 34.1127 38.2585 34.1361 38.2292C34.2826 38.0828 34.3851 37.9744 34.4437 37.9041C34.5082 37.8279 34.5492 37.7722 34.5668 37.7371C34.5902 37.696 34.6078 37.6638 34.6195 37.6404C34.6371 37.6111 34.6722 37.5671 34.725 37.5085C34.807 37.4207 34.8861 37.3533 34.9623 37.3064C35.0443 37.2595 35.141 37.1951 35.2523 37.113C35.2992 37.0779 35.3402 37.0369 35.3754 36.99C35.4105 36.9373 35.4632 36.9109 35.5336 36.9109C35.6859 36.9109 35.7767 36.9285 35.806 36.9636C35.8353 36.9988 35.85 37.0398 35.85 37.0867C35.85 37.2097 35.8382 37.3591 35.8148 37.5349C35.7972 37.7048 35.7767 37.8689 35.7533 38.0271C35.7298 38.1853 35.7064 38.3201 35.683 38.4314C35.6654 38.5427 35.6537 38.5984 35.6478 38.5984C35.6478 38.6628 35.6566 38.7156 35.6742 38.7566C35.6976 38.7976 35.7093 38.8386 35.7093 38.8796C35.6742 39.3132 35.6097 39.7732 35.516 40.2595C35.4281 40.7458 35.3607 41.2292 35.3138 41.7097C35.2845 42.0027 35.267 42.3044 35.2611 42.615C35.2611 42.9255 35.2377 43.2156 35.1908 43.4851C35.1791 43.5554 35.1556 43.6228 35.1205 43.6873C35.0912 43.7458 35.0707 43.8074 35.0589 43.8718C35.0472 43.9773 35.0414 44.0857 35.0414 44.197C35.0414 44.3025 35.0355 44.4226 35.0238 44.5574C35.0121 44.6921 34.9886 44.8474 34.9535 45.0232C34.9242 45.199 34.8714 45.407 34.7953 45.6472C34.7894 45.6648 34.7748 45.7 34.7513 45.7527C34.7279 45.8054 34.7191 45.8347 34.725 45.8406C34.7484 45.8757 34.7748 45.8933 34.8041 45.8933C34.8978 45.8933 35.0004 45.8494 35.1117 45.7615C35.223 45.6677 35.3343 45.5535 35.4457 45.4187C35.557 45.2839 35.6683 45.1375 35.7796 44.9792C35.891 44.8152 35.9994 44.6658 36.1048 44.531C36.14 44.4841 36.1693 44.4285 36.1927 44.364C36.222 44.2996 36.2572 44.2439 36.2982 44.197C36.3568 44.1267 36.433 44.0242 36.5267 43.8894C36.6263 43.7546 36.723 43.614 36.8168 43.4675C36.9164 43.3152 37.0072 43.1716 37.0892 43.0369C37.1712 42.8962 37.2269 42.7849 37.2562 42.7029C37.2738 42.6619 37.3002 42.6062 37.3353 42.5359C37.3763 42.4597 37.4173 42.3865 37.4584 42.3162C37.4994 42.24 37.5345 42.1755 37.5638 42.1228C37.599 42.0642 37.6166 42.032 37.6166 42.0261C37.6224 41.9382 37.6722 41.8943 37.766 41.8943C37.8011 41.8943 37.848 41.9119 37.9066 41.947C37.9711 41.9763 38.0326 42.0173 38.0912 42.0701C38.1498 42.1169 38.1996 42.1726 38.2406 42.2371C38.2875 42.2957 38.3109 42.3513 38.3109 42.4041C38.3109 42.4861 38.267 42.5769 38.1791 42.6765C38.0912 42.7761 38.0033 42.8728 37.9154 42.9666C37.8627 43.0251 37.7777 43.1365 37.6605 43.3005C37.5433 43.4587 37.4173 43.6375 37.2826 43.8367C37.1537 44.03 37.0248 44.2205 36.8959 44.408C36.767 44.5955 36.6586 44.7449 36.5707 44.8562C36.5004 44.9441 36.4359 45.0173 36.3773 45.0759C36.3246 45.1345 36.2806 45.1873 36.2455 45.2341C36.2103 45.2751 36.181 45.3162 36.1576 45.3572C36.14 45.3923 36.1312 45.4392 36.1312 45.4978C36.1312 45.5271 36.1371 45.5769 36.1488 45.6472C36.1605 45.7175 36.1781 45.7996 36.2015 45.8933C36.225 45.9812 36.2513 46.075 36.2806 46.1746C36.3099 46.2683 36.3392 46.3562 36.3685 46.4382C36.3802 46.4617 36.4007 46.4939 36.43 46.5349C36.4652 46.5759 36.4886 46.6082 36.5004 46.6316C36.6 46.8542 36.6996 47.0886 36.7992 47.3347C36.8988 47.5808 37.0013 47.8093 37.1068 48.0203C37.2123 48.2253 37.3236 48.3982 37.4408 48.5388C37.558 48.6736 37.6839 48.741 37.8187 48.741C37.8832 48.741 37.933 48.7263 37.9681 48.697C38.0033 48.6677 38.0384 48.6326 38.0736 48.5916C38.1087 48.5447 38.1498 48.4949 38.1966 48.4421C38.2494 48.3835 38.3197 48.325 38.4076 48.2664C38.4369 48.2488 38.4662 48.24 38.4955 48.24C38.5306 48.24 38.5629 48.2371 38.5921 48.2312C38.6214 48.2253 38.6449 48.2107 38.6625 48.1873C38.6859 48.1638 38.6976 48.1199 38.6976 48.0554C38.6976 48.0027 38.7064 47.9675 38.724 47.95C38.7416 47.9265 38.7621 47.9148 38.7855 47.9148C38.8148 47.9089 38.8412 47.906 38.8646 47.906C38.8939 47.906 38.9144 47.8972 38.9261 47.8796C38.9671 47.8328 38.9935 47.78 39.0052 47.7214C39.0228 47.657 39.0404 47.5984 39.058 47.5457C39.0814 47.4929 39.1107 47.449 39.1459 47.4138C39.181 47.3728 39.2396 47.3523 39.3216 47.3523C39.3334 47.3992 39.3568 47.4314 39.392 47.449C39.4271 47.4666 39.4476 47.4988 39.4535 47.5457ZM42.7054 47.616C42.7289 47.6687 42.7406 47.7244 42.7406 47.783C42.7406 47.8416 42.7259 47.8943 42.6966 47.9412C42.6732 47.9822 42.641 48.0232 42.6 48.0642C42.5648 48.0994 42.5238 48.1345 42.4769 48.1697C42.4359 48.199 42.4007 48.2312 42.3714 48.2664C42.3597 48.2898 42.3509 48.325 42.3451 48.3718C42.3451 48.4128 42.3334 48.4451 42.3099 48.4685C42.2396 48.5447 42.1517 48.6091 42.0462 48.6619C41.9466 48.7146 41.8587 48.782 41.7826 48.864C41.7357 48.9167 41.7005 48.9695 41.6771 49.0222C41.6537 49.0691 41.6009 49.1248 41.5189 49.1892C41.4545 49.2361 41.3929 49.3005 41.3343 49.3826C41.2757 49.4646 41.2113 49.5466 41.141 49.6287C41.0707 49.7048 40.9886 49.7722 40.8949 49.8308C40.8011 49.8953 40.6898 49.9275 40.5609 49.9275C40.5316 49.9275 40.5052 49.9246 40.4818 49.9187C40.4584 49.9187 40.432 49.9158 40.4027 49.9099C40.4027 49.9099 40.3822 49.8982 40.3412 49.8748C40.3002 49.8513 40.2533 49.8044 40.2005 49.7341C40.1537 49.6638 40.1097 49.5642 40.0687 49.4353C40.0277 49.3064 40.0072 49.1365 40.0072 48.9255C40.0072 48.8728 40.016 48.8171 40.0336 48.7585C40.057 48.6941 40.0804 48.6326 40.1039 48.574C40.1332 48.5154 40.1566 48.4568 40.1742 48.3982C40.1976 48.3337 40.2093 48.2751 40.2093 48.2224C40.2093 48.1697 40.1976 48.1199 40.1742 48.073C40.1507 48.0261 40.139 47.9763 40.139 47.9236C40.139 47.8708 40.1625 47.8357 40.2093 47.8181C40.2562 47.7947 40.2796 47.7537 40.2796 47.6951C40.2796 47.6658 40.2767 47.6394 40.2709 47.616C40.2709 47.5925 40.2709 47.5662 40.2709 47.5369C40.2709 47.4666 40.2826 47.4197 40.306 47.3962C40.3295 47.3669 40.3412 47.3289 40.3412 47.282C40.3412 47.241 40.3324 47.2117 40.3148 47.1941C40.3031 47.1707 40.2972 47.1414 40.2972 47.1062C40.2972 47.0652 40.3119 47.0271 40.3412 46.9919C40.3705 46.9509 40.391 46.8953 40.4027 46.825C40.4437 46.6902 40.4759 46.532 40.4994 46.3503C40.5228 46.1628 40.5492 45.9636 40.5785 45.7527C40.6136 45.5359 40.6517 45.3074 40.6927 45.0671C40.7337 44.821 40.7923 44.575 40.8685 44.3289C40.892 44.2468 40.9154 44.1296 40.9388 43.9773C40.9681 43.8191 40.9857 43.655 40.9916 43.4851C40.9623 43.4675 40.9418 43.4587 40.93 43.4587C40.8832 43.4587 40.848 43.4968 40.8246 43.573C40.807 43.6492 40.7777 43.7048 40.7367 43.74C40.7074 43.7634 40.6722 43.7751 40.6312 43.7751C40.5961 43.7751 40.5638 43.7839 40.5345 43.8015C40.4994 43.8308 40.4701 43.866 40.4466 43.907C40.4291 43.9421 40.4086 43.9773 40.3851 44.0125C40.3675 44.0476 40.3412 44.0828 40.306 44.1179C40.2709 44.1531 40.2181 44.1794 40.1478 44.197C40.1361 44.2029 40.1302 44.2175 40.1302 44.241C40.1302 44.2585 40.1185 44.2673 40.0951 44.2673H40.0775C40.0775 44.2498 40.0629 44.2351 40.0336 44.2234C40.0101 44.2058 39.9808 44.1882 39.9457 44.1707C39.9105 44.1531 39.8783 44.1326 39.849 44.1091C39.8255 44.0857 39.8138 44.0564 39.8138 44.0212C39.8138 43.9685 39.8255 43.9275 39.849 43.8982C39.8724 43.8689 39.9046 43.8455 39.9457 43.8279C39.9867 43.8103 40.0277 43.7927 40.0687 43.7751C40.1156 43.7517 40.1625 43.7195 40.2093 43.6785C40.2679 43.6199 40.3324 43.5525 40.4027 43.4763C40.4789 43.4001 40.555 43.324 40.6312 43.2478C40.7074 43.1658 40.7865 43.0896 40.8685 43.0193C40.9564 42.9431 41.0443 42.8757 41.1322 42.8171C41.1498 42.8054 41.1527 42.7937 41.141 42.782C41.1351 42.7703 41.1527 42.7615 41.1937 42.7556C41.2113 42.7556 41.2347 42.7468 41.264 42.7292C41.2992 42.7058 41.3314 42.6824 41.3607 42.6589C41.3959 42.6296 41.4252 42.6062 41.4486 42.5886C41.472 42.5652 41.4867 42.5535 41.4925 42.5535C41.5043 42.5535 41.516 42.5564 41.5277 42.5623C41.5453 42.5623 41.5599 42.5623 41.5716 42.5623C41.6185 42.5623 41.6712 42.5505 41.7298 42.5271C41.7943 42.4978 41.9086 42.4832 42.0726 42.4832C42.1371 42.4832 42.1927 42.5037 42.2396 42.5447C42.2923 42.5798 42.3187 42.656 42.3187 42.7732C42.3187 42.8083 42.3041 42.864 42.2748 42.9402C42.2455 43.0164 42.2132 43.1072 42.1781 43.2126C42.1429 43.3181 42.1107 43.4353 42.0814 43.5642C42.0521 43.6931 42.0375 43.8279 42.0375 43.9685C42.0375 44.0271 42.0404 44.0886 42.0462 44.1531C42.0521 44.2117 42.055 44.2703 42.055 44.3289C42.055 44.4343 42.0345 44.5251 41.9935 44.6013C41.9584 44.6716 41.932 44.7566 41.9144 44.8562C41.891 44.9792 41.8793 45.1082 41.8793 45.2429C41.8793 45.3777 41.8705 45.5125 41.8529 45.6472C41.806 45.9285 41.7504 46.2009 41.6859 46.4646C41.6214 46.7283 41.5658 47.0007 41.5189 47.282C41.5013 47.3757 41.472 47.4958 41.431 47.6423C41.3959 47.7888 41.3783 47.9441 41.3783 48.1082C41.3783 48.2605 41.4046 48.4011 41.4574 48.53C41.5453 48.5242 41.6185 48.4978 41.6771 48.4509C41.7357 48.4041 41.7884 48.3513 41.8353 48.2927C41.8822 48.2341 41.9261 48.1726 41.9671 48.1082C42.014 48.0437 42.0638 47.988 42.1166 47.9412C42.1517 47.9119 42.2015 47.8914 42.266 47.8796C42.3363 47.8621 42.3949 47.8386 42.4418 47.8093C42.4886 47.78 42.5209 47.739 42.5384 47.6863C42.556 47.6335 42.5941 47.6072 42.6527 47.6072C42.6644 47.6072 42.6732 47.6101 42.6791 47.616C42.6849 47.616 42.6937 47.616 42.7054 47.616ZM43.0306 38.7566C43.0482 38.7917 43.057 38.8298 43.057 38.8708C43.057 38.9412 43.0336 39.0173 42.9867 39.0994C42.9398 39.1814 42.8871 39.2605 42.8285 39.3367C42.7757 39.4128 42.723 39.4832 42.6703 39.5476C42.6175 39.6062 42.5853 39.6472 42.5736 39.6707C42.5384 39.7468 42.5091 39.8494 42.4857 39.9783C42.4681 40.1072 42.43 40.2244 42.3714 40.3298C42.348 40.3767 42.3275 40.4119 42.3099 40.4353C42.2923 40.4587 42.2718 40.5115 42.2484 40.5935C42.225 40.6462 42.1957 40.7078 42.1605 40.7781C42.1254 40.8484 42.0873 40.9158 42.0462 40.9802C42.0052 41.0388 41.9642 41.0916 41.9232 41.1384C41.8822 41.1794 41.8441 41.2 41.8089 41.2C41.6566 41.2 41.5511 41.1267 41.4925 40.9802C41.4398 40.8279 41.4134 40.6492 41.4134 40.4441C41.4134 40.3621 41.4164 40.2771 41.4222 40.1892C41.4339 40.1013 41.4457 40.0164 41.4574 39.9343C41.4691 39.8464 41.4984 39.782 41.5453 39.741C41.5921 39.7 41.6302 39.6355 41.6595 39.5476C41.6888 39.4714 41.7093 39.3982 41.7211 39.3279C41.7328 39.2517 41.7445 39.1814 41.7562 39.1169C41.7738 39.0525 41.7914 38.9968 41.8089 38.95C41.8324 38.8972 41.8675 38.8533 41.9144 38.8181C41.9496 38.7947 41.9906 38.7742 42.0375 38.7566C42.0902 38.739 42.1429 38.7273 42.1957 38.7214C42.2543 38.7097 42.3099 38.7009 42.3627 38.6951C42.4212 38.6892 42.4681 38.6863 42.5033 38.6863C42.5033 38.6921 42.5296 38.6833 42.5824 38.6599C42.6351 38.6306 42.6937 38.616 42.7582 38.616C42.7699 38.616 42.808 38.6277 42.8724 38.6511C42.9427 38.6687 42.9955 38.7039 43.0306 38.7566ZM50.2816 47.8005C50.2816 47.8943 50.2552 47.9792 50.2025 48.0554C50.1498 48.1257 50.0824 48.196 50.0004 48.2664C49.9183 48.3367 49.8275 48.407 49.7279 48.4773C49.6283 48.5476 49.5316 48.6267 49.4379 48.7146C49.4086 48.738 49.3851 48.7732 49.3675 48.8201C49.35 48.8611 49.3265 48.8904 49.2972 48.908C49.2679 48.9373 49.2357 48.949 49.2005 48.9431C49.1654 48.9373 49.1332 48.949 49.1039 48.9783C49.0629 49.0193 49.0218 49.0779 48.9808 49.1541C48.9457 49.2244 48.8988 49.2976 48.8402 49.3738C48.8226 49.4031 48.7757 49.4617 48.6996 49.5496C48.6293 49.6375 48.5443 49.7283 48.4447 49.822C48.3509 49.9158 48.2513 50.0007 48.1459 50.0769C48.0462 50.1531 47.9554 50.1912 47.8734 50.1912C47.8265 50.1912 47.7914 50.1794 47.7679 50.156C47.7445 50.1326 47.7328 50.1062 47.7328 50.0769C47.7328 50.0417 47.7416 50.0007 47.7591 49.9539C47.7767 49.907 47.7855 49.8455 47.7855 49.7693C47.7855 49.6404 47.765 49.532 47.724 49.4441C47.683 49.3562 47.6625 49.2888 47.6625 49.2419C47.6683 49.1189 47.7005 48.9841 47.7591 48.8376C47.8236 48.6912 47.8558 48.5417 47.8558 48.3894C47.8558 48.3074 47.8441 48.2312 47.8207 48.1609C47.7972 48.0847 47.7855 48.0056 47.7855 47.9236C47.7855 47.8416 47.806 47.7566 47.847 47.6687C47.888 47.575 47.9144 47.4871 47.9261 47.405C47.9379 47.3113 47.9466 47.2175 47.9525 47.1238C47.9584 47.03 47.9613 46.9363 47.9613 46.8425V46.5964C47.9613 46.4675 47.9701 46.3503 47.9877 46.2449C48.0052 46.1394 48.0228 46.0398 48.0404 45.946C48.0638 45.8523 48.0873 45.7585 48.1107 45.6648C48.14 45.571 48.1634 45.4714 48.181 45.366C48.2045 45.2253 48.2191 45.0847 48.225 44.9441C48.2308 44.8035 48.2337 44.6628 48.2337 44.5222C48.2396 44.3816 48.2455 44.2468 48.2513 44.1179C48.263 43.9832 48.2836 43.8542 48.3129 43.7312C48.2953 43.7253 48.2689 43.7224 48.2337 43.7224C48.1576 43.7224 48.0931 43.7458 48.0404 43.7927C47.9877 43.8337 47.9408 43.8835 47.8998 43.9421C47.8646 43.9949 47.8324 44.0535 47.8031 44.1179C47.7796 44.1765 47.7533 44.2234 47.724 44.2585C47.7005 44.2878 47.6683 44.3083 47.6273 44.3201C47.5863 44.3318 47.5541 44.3523 47.5306 44.3816C47.5013 44.4167 47.4779 44.4607 47.4603 44.5134C47.4427 44.5662 47.4222 44.6101 47.3988 44.6453C47.3871 44.6687 47.3607 44.6833 47.3197 44.6892C47.2845 44.6892 47.267 44.7039 47.267 44.7332C47.267 44.7449 47.267 44.7595 47.267 44.7771C47.2728 44.7947 47.2757 44.8093 47.2757 44.821C47.2757 44.8445 47.2582 44.8738 47.223 44.9089C47.1879 44.9382 47.1468 44.9705 47.1 45.0056C47.0589 45.0408 47.0209 45.0759 46.9857 45.1111C46.9505 45.1462 46.933 45.1755 46.933 45.199C46.933 45.2107 46.933 45.2253 46.933 45.2429C46.9388 45.2605 46.9418 45.2751 46.9418 45.2869C46.9418 45.2986 46.9212 45.3337 46.8802 45.3923C46.8392 45.4509 46.7894 45.5154 46.7308 45.5857C46.6722 45.656 46.6136 45.7263 46.555 45.7966C46.4964 45.8669 46.4496 45.9197 46.4144 45.9548C46.3089 46.0603 46.2328 46.1599 46.1859 46.2537C46.139 46.3474 46.1039 46.4382 46.0804 46.5261C46.0629 46.6082 46.0453 46.6902 46.0277 46.7722C46.016 46.8542 45.9925 46.9333 45.9574 47.0095C45.9457 47.0212 45.9222 47.033 45.8871 47.0447C45.8519 47.0505 45.8285 47.0593 45.8168 47.071C45.7875 47.1355 45.7611 47.2058 45.7377 47.282C45.7142 47.3582 45.6761 47.4402 45.6234 47.5281C45.6117 47.5457 45.5882 47.5691 45.5531 47.5984C45.5179 47.6277 45.5004 47.6511 45.5004 47.6687C45.4711 47.7332 45.4476 47.8093 45.43 47.8972C45.4125 47.9851 45.3978 48.0759 45.3861 48.1697C45.3744 48.2634 45.3656 48.3572 45.3597 48.4509C45.3539 48.5388 45.3509 48.615 45.3509 48.6794C45.3509 48.7439 45.3656 48.7937 45.3949 48.8289C45.4242 48.864 45.4388 48.9167 45.4388 48.9871C45.4388 49.0281 45.4242 49.0603 45.3949 49.0837C45.3714 49.1072 45.3392 49.1306 45.2982 49.1541C45.263 49.1716 45.2191 49.1921 45.1664 49.2156C45.1195 49.239 45.0755 49.2683 45.0345 49.3035C44.8998 49.4207 44.7855 49.5261 44.6918 49.6199C44.598 49.7078 44.513 49.7898 44.4369 49.866C44.3607 49.948 44.2933 50.0212 44.2347 50.0857C44.1761 50.156 44.1146 50.2234 44.0502 50.2878C44.0091 50.282 43.9886 50.2615 43.9886 50.2263C43.9886 50.1619 44.0209 50.0974 44.0853 50.033C44.1498 49.9685 44.182 49.9099 44.182 49.8572C44.182 49.8162 44.1703 49.7839 44.1468 49.7605C44.1293 49.7312 44.1205 49.6902 44.1205 49.6375C44.1205 49.6199 44.1234 49.5847 44.1293 49.532C44.141 49.4734 44.1527 49.4089 44.1644 49.3386C44.1761 49.2625 44.1879 49.1863 44.1996 49.1101C44.2171 49.0339 44.2318 48.9666 44.2435 48.908C44.267 48.8083 44.2962 48.7087 44.3314 48.6091C44.3724 48.5037 44.4105 48.3982 44.4457 48.2927C44.4867 48.1814 44.5189 48.0701 44.5423 47.9587C44.5716 47.8474 44.5863 47.7332 44.5863 47.616C44.5863 47.5632 44.5834 47.5193 44.5775 47.4841C44.5716 47.4431 44.5687 47.405 44.5687 47.3699C44.5687 47.3171 44.5746 47.2439 44.5863 47.1501C44.598 47.0505 44.6097 46.9421 44.6214 46.825C44.639 46.7078 44.6537 46.5906 44.6654 46.4734C44.683 46.3562 44.6976 46.2507 44.7093 46.157C44.7269 45.9519 44.7357 45.7439 44.7357 45.533C44.7357 45.322 44.7474 45.114 44.7709 44.9089C44.7943 44.7214 44.8265 44.5339 44.8675 44.3464C44.9144 44.1589 44.9379 43.9714 44.9379 43.7839C44.9379 43.6667 44.9261 43.5613 44.9027 43.4675C44.8324 43.4792 44.7621 43.5232 44.6918 43.5994C44.6214 43.6755 44.5541 43.7576 44.4896 43.8455C44.431 43.9333 44.3783 44.0125 44.3314 44.0828C44.2845 44.1531 44.2494 44.1882 44.2259 44.1882C44.2142 44.1882 44.1996 44.1882 44.182 44.1882C44.1644 44.1824 44.1498 44.1794 44.138 44.1794C44.1087 44.1794 44.0853 44.2117 44.0677 44.2761C44.0502 44.3406 44.0267 44.4109 43.9974 44.4871C43.9681 44.5574 43.9271 44.6248 43.8744 44.6892C43.8275 44.7537 43.7601 44.7859 43.6722 44.7859C43.6488 44.7859 43.6048 44.7771 43.5404 44.7595C43.4759 44.7419 43.4437 44.7009 43.4437 44.6365C43.4437 44.5955 43.4554 44.5574 43.4789 44.5222C43.5082 44.4871 43.5404 44.4548 43.5755 44.4255C43.6166 44.3962 43.6546 44.3699 43.6898 44.3464C43.7308 44.3171 43.763 44.2878 43.7865 44.2585C43.8041 44.2292 43.8129 44.197 43.8129 44.1619C43.8187 44.1208 43.8304 44.0857 43.848 44.0564C43.9886 43.8806 44.1556 43.7078 44.349 43.5378C44.5482 43.3679 44.7328 43.1892 44.9027 43.0017C44.9261 42.9783 44.9349 42.946 44.9291 42.905C44.9291 42.864 44.9437 42.8318 44.973 42.8083C44.9964 42.7849 45.0287 42.7761 45.0697 42.782C45.1107 42.782 45.1429 42.7703 45.1664 42.7468C45.1839 42.7292 45.1986 42.697 45.2103 42.6501C45.2279 42.6033 45.2513 42.5564 45.2806 42.5095C45.3158 42.4568 45.3568 42.4128 45.4037 42.3777C45.4564 42.3425 45.5267 42.325 45.6146 42.325C45.6615 42.325 45.7113 42.3337 45.764 42.3513C45.8226 42.363 45.8754 42.3835 45.9222 42.4128C45.975 42.4363 46.016 42.4656 46.0453 42.5007C46.0804 42.53 46.098 42.5623 46.098 42.5974C46.098 42.656 46.0834 42.7322 46.0541 42.8259C46.0306 42.9197 46.0189 43.0222 46.0189 43.1335C46.0189 43.2039 46.0306 43.2712 46.0541 43.3357C46.0775 43.3943 46.0892 43.4382 46.0892 43.4675C46.0775 43.5437 46.0511 43.6199 46.0101 43.696C45.9691 43.7664 45.9486 43.8601 45.9486 43.9773C45.9486 44.03 45.9486 44.0886 45.9486 44.1531C45.9545 44.2175 45.9574 44.282 45.9574 44.3464C45.9574 44.4519 45.9427 44.572 45.9134 44.7068C45.8841 44.8357 45.8519 44.9617 45.8168 45.0847C45.7875 45.2078 45.7582 45.322 45.7289 45.4275C45.6996 45.5271 45.6849 45.6033 45.6849 45.656C45.6849 45.7029 45.7054 45.7263 45.7464 45.7263C45.805 45.7263 45.8812 45.6853 45.975 45.6033C46.0687 45.5212 46.1478 45.4421 46.2123 45.366C46.2357 45.3425 46.2474 45.3103 46.2474 45.2693C46.2533 45.2283 46.265 45.196 46.2826 45.1726C46.2943 45.155 46.3207 45.1316 46.3617 45.1023C46.4086 45.0671 46.4554 45.032 46.5023 44.9968C46.5492 44.9617 46.5902 44.9294 46.6254 44.9001C46.6605 44.865 46.6781 44.8386 46.6781 44.821C46.6781 44.8093 46.6752 44.7947 46.6693 44.7771C46.6693 44.7595 46.6693 44.7449 46.6693 44.7332C46.6693 44.7039 46.6898 44.6628 46.7308 44.6101C46.7718 44.5574 46.8187 44.5017 46.8714 44.4431C46.9242 44.3787 46.974 44.3171 47.0209 44.2585C47.0736 44.2 47.1117 44.1531 47.1351 44.1179C47.1586 44.0828 47.1673 44.0417 47.1615 43.9949C47.1615 43.9421 47.1732 43.8982 47.1966 43.863C47.267 43.7693 47.3607 43.6638 47.4779 43.5466C47.6009 43.4294 47.7035 43.3386 47.7855 43.2742C47.8324 43.239 47.8793 43.2156 47.9261 43.2039C47.973 43.1921 48.017 43.1687 48.058 43.1335C48.1459 43.0515 48.2279 42.9607 48.3041 42.8611C48.3802 42.7615 48.4564 42.6707 48.5326 42.5886C48.6087 42.5007 48.6849 42.4275 48.7611 42.3689C48.8431 42.3103 48.9339 42.281 49.0336 42.281C49.0629 42.281 49.1068 42.2957 49.1654 42.325C49.224 42.3542 49.2826 42.3953 49.3412 42.448C49.3998 42.5007 49.4496 42.5623 49.4906 42.6326C49.5375 42.697 49.5609 42.7673 49.5609 42.8435C49.5609 42.8904 49.5521 42.9519 49.5345 43.0281C49.517 43.0984 49.5052 43.1804 49.4994 43.2742C49.4818 43.4851 49.4613 43.6814 49.4379 43.863C49.4203 44.0447 49.3968 44.241 49.3675 44.4519C49.3441 44.6101 49.3295 44.7625 49.3236 44.9089C49.3236 45.0496 49.3148 45.1609 49.2972 45.2429C49.2679 45.3601 49.2211 45.4744 49.1566 45.5857C49.098 45.697 49.0687 45.8289 49.0687 45.9812C49.0687 46.0164 49.0716 46.0544 49.0775 46.0955C49.0834 46.1365 49.0921 46.1804 49.1039 46.2273C49.1097 46.2449 49.1185 46.2595 49.1302 46.2712C49.1478 46.2771 49.1625 46.2888 49.1742 46.3064C49.1918 46.3181 49.2064 46.3386 49.2181 46.3679C49.2298 46.3972 49.2357 46.4412 49.2357 46.4998C49.2357 46.6521 49.2035 46.8044 49.139 46.9568C49.0746 47.1033 49.0423 47.2615 49.0423 47.4314C49.0423 47.4958 49.0511 47.5632 49.0687 47.6335C49.0921 47.698 49.1039 47.7625 49.1039 47.8269C49.1039 47.9441 49.0775 48.0613 49.0248 48.1785C48.9779 48.2898 48.9545 48.4128 48.9545 48.5476C48.9545 48.5769 48.9574 48.6033 48.9632 48.6267C48.9691 48.6501 48.9867 48.6619 49.016 48.6619C49.1449 48.6619 49.2504 48.615 49.3324 48.5212C49.4203 48.4275 49.5023 48.325 49.5785 48.2136C49.6546 48.1023 49.7337 47.9998 49.8158 47.906C49.9037 47.8123 50.0091 47.7654 50.1322 47.7654C50.1849 47.7654 50.2347 47.7771 50.2816 47.8005Z" fill="#D6A994"/>
</svg>
