<svg width="44" height="45" viewBox="0 0 44 45" fill="none" xmlns="http://www.w3.org/2000/svg">
<g filter="url(#filter0_i_60_2965)">
<path d="M0 0H33.4811C39.0039 0 43.4811 4.47715 43.4811 10V45H10C4.47716 45 0 40.5228 0 35V0Z" fill="#8D5F45"/>
<path d="M25.2951 11.7701C25.2951 16.0616 21.5628 19.5402 21.5628 19.5402C21.5628 19.5402 17.8305 16.0616 17.8305 11.7701C17.8305 7.47921 21.5628 4 21.5628 4C21.5628 4 25.2951 7.47858 25.2951 11.7701Z" stroke="#D6A994" stroke-width="1.1106" stroke-miterlimit="10"/>
<path d="M13.2814 16.0791C17.8548 16.0791 21.5628 19.5396 21.5628 19.5396C21.5628 19.5396 17.8554 23 13.2814 23C8.70803 23 5 19.5396 5 19.5396C5 19.5396 8.70803 16.0791 13.2814 16.0791Z" stroke="#D6A994" stroke-width="1.1106" stroke-miterlimit="10"/>
<path d="M29.8442 16.0791C25.2708 16.0791 21.5628 19.5396 21.5628 19.5396C21.5628 19.5396 25.2702 23 29.8442 23C34.4176 23 38.1256 19.5396 38.1256 19.5396C38.1256 19.5396 34.4176 16.0791 29.8442 16.0791Z" stroke="#D6A994" stroke-width="1.1106" stroke-miterlimit="10"/>
<path d="M24.7795 12.0482C21.5453 15.0469 21.5635 19.9246 21.5635 19.9246C21.5635 19.9246 26.8243 19.9408 30.0585 16.9427C33.2928 13.9441 33.2753 9.06641 33.2753 9.06641C33.2753 9.06641 28.0131 9.04953 24.7795 12.0482Z" stroke="#D6A994" stroke-width="1.1106" stroke-miterlimit="10"/>
<path d="M18.121 12.0482C21.3552 15.0469 21.3377 19.9246 21.3377 19.9246C21.3377 19.9246 16.0769 19.9408 12.8427 16.9427C9.60844 13.9441 9.62665 9.06641 9.62665 9.06641C9.62665 9.06641 14.8874 9.04953 18.121 12.0482Z" stroke="#D6A994" stroke-width="1.1106" stroke-miterlimit="10"/>
<path d="M9.3418 28.2622C9.38086 28.3257 9.40039 28.377 9.40039 28.416C9.40039 28.46 9.38818 28.5015 9.36377 28.5405C9.33936 28.5796 9.30762 28.6187 9.26855 28.6577C9.23438 28.6919 9.19775 28.7261 9.15869 28.7603C9.11963 28.7944 9.08789 28.8311 9.06348 28.8701C9.01953 28.9385 8.98047 29.0068 8.94629 29.0752C8.91699 29.1387 8.88281 29.1973 8.84375 29.251C8.80957 29.3047 8.76807 29.3486 8.71924 29.3828C8.67529 29.417 8.6167 29.4341 8.54346 29.4341C8.51904 29.4341 8.48975 29.4292 8.45557 29.4194C8.42627 29.4097 8.39697 29.4048 8.36768 29.4048C8.31396 29.4048 8.26514 29.4219 8.22119 29.4561C8.18213 29.4854 8.13574 29.5073 8.08203 29.522C8.01367 29.5415 7.95264 29.5586 7.89893 29.5732C7.8501 29.5879 7.78418 29.6074 7.70117 29.6318H7.61328C7.55957 29.6318 7.50586 29.6465 7.45215 29.6758C7.40332 29.7051 7.32275 29.7466 7.21045 29.8003C7.15186 29.8198 7.07373 29.8271 6.97607 29.8223C6.8833 29.8174 6.77832 29.8271 6.66113 29.8516C6.64648 29.8564 6.62695 29.876 6.60254 29.9102C6.57812 29.9395 6.56104 29.9565 6.55127 29.9614C6.48291 29.981 6.40479 29.998 6.31689 30.0127C6.229 30.0225 6.146 30.042 6.06787 30.0713C5.99463 30.0957 5.93115 30.1348 5.87744 30.1885C5.82861 30.2422 5.8042 30.3203 5.8042 30.4229C5.8042 30.501 5.82373 30.5962 5.86279 30.7085C5.90186 30.8159 5.94336 30.9233 5.9873 31.0308C6.03613 31.1333 6.08252 31.2236 6.12646 31.3018C6.17529 31.3799 6.20703 31.4263 6.22168 31.4409C6.26562 31.4897 6.30469 31.5435 6.33887 31.6021C6.37305 31.6558 6.40723 31.7168 6.44141 31.7852C6.48047 31.8486 6.51953 31.917 6.55859 31.9902C6.60254 32.0586 6.65625 32.1294 6.71973 32.2026C6.75879 32.2515 6.80273 32.2979 6.85156 32.3418C6.90039 32.3857 6.94678 32.4272 6.99072 32.4663C7.03467 32.5054 7.07129 32.5444 7.10059 32.5835C7.13477 32.6226 7.15186 32.6592 7.15186 32.6934C7.17139 32.752 7.23486 32.8252 7.34229 32.9131C7.44971 33.001 7.5498 33.1108 7.64258 33.2427C7.65234 33.2573 7.67188 33.2793 7.70117 33.3086C7.73047 33.333 7.75977 33.3599 7.78906 33.3892C7.82324 33.4185 7.85254 33.4502 7.87695 33.4844C7.90625 33.5137 7.9209 33.543 7.9209 33.5723C7.9209 33.6113 7.94043 33.6382 7.97949 33.6528C8.01855 33.6675 8.05273 33.6943 8.08203 33.7334C8.10645 33.7627 8.12354 33.7969 8.1333 33.8359C8.14307 33.875 8.1626 33.9141 8.19189 33.9531C8.25049 34.041 8.31885 34.1362 8.39697 34.2388C8.47998 34.3364 8.52148 34.4585 8.52148 34.605C8.52148 34.6978 8.50195 34.7905 8.46289 34.8833C8.45312 34.9077 8.43359 34.9224 8.4043 34.9272C8.37988 34.9321 8.36523 34.9541 8.36035 34.9932C8.34082 35.0615 8.32129 35.1274 8.30176 35.1909C8.28223 35.2495 8.24561 35.3105 8.19189 35.374C8.13818 35.4375 8.07715 35.4961 8.00879 35.5498C7.94043 35.6035 7.87207 35.6719 7.80371 35.7549C7.75488 35.8184 7.70361 35.8745 7.6499 35.9233C7.59619 35.9722 7.53516 36.0234 7.4668 36.0771C7.40332 36.1309 7.32764 36.1919 7.23975 36.2603C7.15186 36.3286 7.04932 36.4165 6.93213 36.5239C6.89307 36.563 6.8418 36.6094 6.77832 36.6631C6.71484 36.7119 6.61963 36.7559 6.49268 36.7949C6.42432 36.8193 6.33154 36.8389 6.21436 36.8535C6.09717 36.8682 5.96533 36.8828 5.81885 36.8975C5.67236 36.9072 5.51611 36.917 5.3501 36.9268C5.18408 36.9365 5.01807 36.9463 4.85205 36.9561C4.72998 36.9707 4.60547 36.9854 4.47852 37C4.35156 37.0098 4.22217 37.0146 4.09033 37.0146C3.88525 37.0146 3.72656 37.0024 3.61426 36.978C3.50684 36.9487 3.45312 36.8779 3.45312 36.7656C3.45312 36.7168 3.46289 36.6729 3.48242 36.6338C3.50684 36.5898 3.53613 36.5508 3.57031 36.5166C3.60449 36.4775 3.63867 36.4409 3.67285 36.4067C3.70703 36.3726 3.73633 36.3384 3.76074 36.3042C3.80957 36.231 3.85352 36.1675 3.89258 36.1138C3.93164 36.0552 3.9707 36.0063 4.00977 35.9673C4.05371 35.9282 4.09766 35.8989 4.1416 35.8794C4.18555 35.8599 4.23926 35.8501 4.30273 35.8501C4.37109 35.8501 4.44434 35.8574 4.52246 35.8721C4.60059 35.8818 4.67627 35.8965 4.74951 35.916C4.82764 35.9307 4.89844 35.9453 4.96191 35.96C5.02539 35.9697 5.07666 35.9746 5.11572 35.9746C5.1792 35.9746 5.24023 35.9673 5.29883 35.9526C5.3623 35.9331 5.43311 35.9233 5.51123 35.9233C5.59424 35.9233 5.68457 35.9331 5.78223 35.9526C5.88477 35.9673 5.97754 35.9746 6.06055 35.9746C6.18262 35.9746 6.32422 35.9673 6.48535 35.9526C6.64648 35.9331 6.80029 35.9038 6.94678 35.8647C7.09326 35.8257 7.21533 35.7769 7.31299 35.7183C7.41553 35.6548 7.4668 35.5815 7.4668 35.4985C7.4668 35.4546 7.44971 35.3936 7.41553 35.3154C7.38135 35.2373 7.3374 35.1519 7.28369 35.0591C7.23486 34.9663 7.17871 34.8711 7.11523 34.7734C7.05176 34.6758 6.99072 34.583 6.93213 34.4951C6.90283 34.4561 6.86621 34.4219 6.82227 34.3926C6.77832 34.3584 6.74414 34.3218 6.71973 34.2827C6.69043 34.2388 6.6709 34.1924 6.66113 34.1436C6.65137 34.0898 6.63184 34.0435 6.60254 34.0044C6.54883 33.9312 6.48291 33.8652 6.40479 33.8066C6.33154 33.7432 6.27051 33.6821 6.22168 33.6235C6.13867 33.5259 6.06055 33.4136 5.9873 33.2866C5.91406 33.1597 5.82861 33.0352 5.73096 32.9131C5.70166 32.8789 5.67969 32.8545 5.66504 32.8398C5.65039 32.8252 5.61865 32.7764 5.56982 32.6934C5.51611 32.625 5.4502 32.5615 5.37207 32.5029C5.29883 32.4443 5.23535 32.3809 5.18164 32.3125C5.16211 32.2881 5.15234 32.2612 5.15234 32.2319C5.15723 32.1978 5.1499 32.1709 5.13037 32.1514C5.07178 32.0928 5.00586 32.0317 4.93262 31.9683C4.85938 31.8999 4.82275 31.812 4.82275 31.7046C4.82275 31.6313 4.80078 31.5386 4.75684 31.4263C4.71777 31.314 4.69824 31.187 4.69824 31.0454C4.69824 30.9478 4.72021 30.8696 4.76416 30.811C4.80811 30.7524 4.8374 30.689 4.85205 30.6206C4.87158 30.5815 4.88135 30.5449 4.88135 30.5107C4.88135 30.4717 4.89111 30.4326 4.91064 30.3936C4.92041 30.3838 4.93994 30.3765 4.96924 30.3716C4.99854 30.3618 5.01562 30.3521 5.02051 30.3423C5.04004 30.2983 5.05957 30.2642 5.0791 30.2397C5.10352 30.2104 5.13281 30.1812 5.16699 30.1519C5.20117 30.1177 5.24512 30.0786 5.29883 30.0347C5.35254 29.9907 5.42334 29.9297 5.51123 29.8516C5.52588 29.8418 5.53564 29.8247 5.54053 29.8003C5.54541 29.771 5.55518 29.7515 5.56982 29.7417C5.604 29.7124 5.64062 29.6929 5.67969 29.6831C5.71875 29.6733 5.75293 29.6562 5.78223 29.6318C5.91406 29.5439 6.02881 29.4683 6.12646 29.4048C6.229 29.3413 6.32422 29.2852 6.41211 29.2363C6.5 29.1826 6.58789 29.1362 6.67578 29.0972C6.76367 29.0581 6.86621 29.019 6.9834 28.98L7.97217 28.6504C8.02588 28.5967 8.09668 28.5674 8.18457 28.5625C8.27246 28.5527 8.36523 28.5283 8.46289 28.4893C8.56055 28.4355 8.68506 28.3916 8.83643 28.3574C8.98779 28.3184 9.15625 28.2866 9.3418 28.2622ZM13.3994 31.8145C13.3896 32 13.3628 32.1685 13.3188 32.3198C13.2798 32.4712 13.2285 32.6104 13.165 32.7373C13.1064 32.8643 13.0405 32.9814 12.9673 33.0889C12.894 33.1963 12.8184 33.3013 12.7402 33.4038C12.6914 33.4673 12.6523 33.5234 12.623 33.5723C12.5938 33.6162 12.5645 33.6553 12.5352 33.6895C12.5059 33.7236 12.4741 33.7529 12.4399 33.7773C12.4058 33.8018 12.3594 33.8213 12.3008 33.8359C12.2617 33.8457 12.2153 33.8579 12.1616 33.8726C12.1128 33.8823 12.0688 33.9067 12.0298 33.9458C12.02 33.9556 12.0103 33.9751 12.0005 34.0044C11.9907 34.0288 11.981 34.0459 11.9712 34.0557C11.9321 34.085 11.8857 34.1045 11.832 34.1143C11.7832 34.1191 11.7393 34.1362 11.7002 34.1655C11.6611 34.1997 11.6343 34.229 11.6196 34.2534C11.605 34.2778 11.5781 34.3022 11.5391 34.3267C11.5 34.3511 11.4536 34.3706 11.3999 34.3853C11.3511 34.395 11.3047 34.4121 11.2607 34.4365C11.2266 34.4609 11.1997 34.4902 11.1802 34.5244C11.1655 34.5537 11.1387 34.5806 11.0996 34.605C11.0215 34.6587 10.9556 34.7002 10.9019 34.7295C10.8481 34.7539 10.8042 34.7905 10.77 34.8394C10.7407 34.8882 10.7188 34.959 10.7041 35.0518C10.6895 35.1445 10.6821 35.2861 10.6821 35.4766C10.6821 35.5889 10.6846 35.6963 10.6895 35.7988C10.6992 35.9014 10.709 35.9771 10.7188 36.0259C10.7236 36.0405 10.7383 36.0747 10.7627 36.1284C10.792 36.1772 10.8262 36.231 10.8652 36.2896C10.9092 36.3481 10.958 36.4019 11.0117 36.4507C11.0654 36.4946 11.1216 36.5166 11.1802 36.5166C11.2681 36.5166 11.3462 36.4849 11.4146 36.4214C11.4829 36.353 11.5586 36.2944 11.6416 36.2456C11.7051 36.2065 11.7881 36.1553 11.8906 36.0918C11.9932 36.0234 12.0762 35.9478 12.1396 35.8647C12.1592 35.8354 12.1836 35.7964 12.2129 35.7476C12.2422 35.6938 12.2739 35.6426 12.3081 35.5938C12.3472 35.54 12.3887 35.4961 12.4326 35.4619C12.4814 35.4229 12.5352 35.4033 12.5938 35.4033C12.6182 35.4033 12.6499 35.4106 12.689 35.4253C12.6841 35.5083 12.6572 35.584 12.6084 35.6523C12.5645 35.7207 12.5132 35.7842 12.4546 35.8428C12.4009 35.8965 12.3521 35.9453 12.3081 35.9893C12.2642 36.0332 12.2422 36.0698 12.2422 36.0991C12.2422 36.1089 12.2422 36.1235 12.2422 36.1431C12.2471 36.1577 12.2495 36.1699 12.2495 36.1797C12.2495 36.2041 12.2202 36.2236 12.1616 36.2383C12.1079 36.248 12.064 36.2676 12.0298 36.2969C12.0054 36.3213 11.9858 36.3506 11.9712 36.3848C11.9614 36.4141 11.9443 36.4385 11.9199 36.458C11.8662 36.502 11.8101 36.541 11.7515 36.5752C11.6929 36.6094 11.6392 36.646 11.5903 36.6851C11.5366 36.7339 11.4805 36.79 11.4219 36.8535C11.3682 36.917 11.3145 36.9756 11.2607 37.0293C11.207 37.0879 11.1533 37.1367 11.0996 37.1758C11.0508 37.2148 11.0044 37.2344 10.9604 37.2344C10.936 37.2344 10.9092 37.2295 10.8799 37.2197C10.8555 37.2148 10.8311 37.2124 10.8066 37.2124C10.7822 37.2124 10.7627 37.2222 10.748 37.2417C10.7334 37.2612 10.7139 37.271 10.6895 37.271C10.6455 37.271 10.5942 37.249 10.5356 37.2051C10.4771 37.166 10.4282 37.1367 10.3892 37.1172C10.3208 37.0928 10.2402 37.0757 10.1475 37.0659C10.0547 37.061 9.98877 37.0439 9.94971 37.0146C9.91553 36.9854 9.88867 36.9316 9.86914 36.8535C9.85449 36.7754 9.82764 36.6997 9.78857 36.6265C9.74951 36.5581 9.70557 36.502 9.65674 36.458C9.60791 36.4141 9.57861 36.3799 9.56885 36.3555C9.55908 36.3262 9.55176 36.2871 9.54688 36.2383C9.54688 36.1846 9.54688 36.1309 9.54688 36.0771C9.54688 36.0186 9.54443 35.9624 9.53955 35.9087C9.53467 35.8501 9.5249 35.7988 9.51025 35.7549C9.50537 35.7402 9.49561 35.728 9.48096 35.7183C9.46631 35.7036 9.45898 35.6768 9.45898 35.6377C9.45898 35.6426 9.46631 35.6328 9.48096 35.6084C9.50049 35.5791 9.51025 35.5547 9.51025 35.5352C9.53467 35.1494 9.56885 34.7832 9.61279 34.4365C9.66162 34.085 9.72266 33.7651 9.7959 33.4771C9.86914 33.1841 9.95703 32.9302 10.0596 32.7153C10.167 32.4956 10.2939 32.3223 10.4404 32.1953C10.4648 32.1758 10.4917 32.1685 10.521 32.1733C10.5552 32.1733 10.5845 32.1636 10.6089 32.144C10.6187 32.1343 10.626 32.1172 10.6309 32.0928C10.6406 32.0635 10.6504 32.0439 10.6602 32.0342C10.6846 32.0146 10.7114 32.0049 10.7407 32.0049C10.7749 32.0049 10.8018 31.9951 10.8213 31.9756C10.8359 31.9658 10.8555 31.9463 10.8799 31.917C10.9043 31.8877 10.9287 31.856 10.9531 31.8218C10.9775 31.7876 11.002 31.7559 11.0264 31.7266C11.0508 31.6924 11.0752 31.668 11.0996 31.6533C11.1582 31.6143 11.229 31.5874 11.312 31.5728C11.395 31.5581 11.4707 31.5288 11.5391 31.4849C11.5586 31.4751 11.5806 31.4556 11.605 31.4263C11.6294 31.397 11.6538 31.3677 11.6782 31.3384C11.7075 31.3042 11.7344 31.2749 11.7588 31.2505C11.7832 31.2261 11.8076 31.2139 11.832 31.2139C11.8418 31.2139 11.854 31.2163 11.8687 31.2212C11.8833 31.2212 11.8955 31.2212 11.9053 31.2212C11.915 31.2212 11.9517 31.1919 12.0151 31.1333C12.0835 31.0747 12.1445 31.0283 12.1982 30.9941C12.2129 30.9844 12.2202 30.9673 12.2202 30.9429C12.2251 30.9136 12.2349 30.894 12.2495 30.8843C12.2739 30.8647 12.313 30.8501 12.3667 30.8403C12.4204 30.8257 12.4717 30.8037 12.5205 30.7744C12.5596 30.75 12.5889 30.7256 12.6084 30.7012C12.6279 30.6768 12.6719 30.6646 12.7402 30.6646C12.916 30.6792 13.0503 30.7109 13.1431 30.7598C13.2358 30.8086 13.2993 30.8794 13.3335 30.9722C13.3726 31.0601 13.3921 31.1748 13.3921 31.3164C13.397 31.4531 13.3994 31.6191 13.3994 31.8145ZM12.3594 31.8145C12.3545 31.8047 12.335 31.7876 12.3008 31.7632C12.2715 31.7339 12.2544 31.7144 12.2495 31.7046C12.2349 31.6802 12.2275 31.6558 12.2275 31.6313C12.2275 31.6021 12.2251 31.5752 12.2202 31.5508C12.2153 31.5264 12.2056 31.5068 12.1909 31.4922C12.1812 31.4775 12.1592 31.4702 12.125 31.4702C12.0957 31.4702 12.0518 31.4873 11.9932 31.5215C11.9395 31.5508 11.8809 31.5874 11.8174 31.6313C11.7588 31.6753 11.7026 31.7192 11.6489 31.7632C11.5952 31.8071 11.5586 31.8413 11.5391 31.8657C11.5146 31.895 11.4805 31.9487 11.4365 32.0269C11.3975 32.1001 11.356 32.1758 11.312 32.2539C11.2729 32.332 11.2363 32.4004 11.2021 32.459C11.168 32.5176 11.1484 32.5469 11.1436 32.5469C11.1436 32.5566 11.1436 32.5688 11.1436 32.5835C11.1484 32.5981 11.1509 32.6104 11.1509 32.6201C11.1509 32.6494 11.1313 32.6763 11.0923 32.7007C11.0532 32.7202 11.0337 32.7617 11.0337 32.8252C11.0337 32.8496 11.0361 32.8789 11.041 32.9131C11.0459 32.9424 11.0483 32.9692 11.0483 32.9937C11.0483 33.0327 11.0312 33.0718 10.9971 33.1108C10.9678 33.1499 10.9482 33.1914 10.9385 33.2354C10.8945 33.3916 10.8506 33.5601 10.8066 33.7407C10.7627 33.9165 10.7407 34.0898 10.7407 34.2607C10.7407 34.3145 10.7456 34.3608 10.7554 34.3999C10.77 34.4341 10.8091 34.4512 10.8726 34.4512C10.9165 34.4512 10.9482 34.4438 10.9678 34.4292C10.9922 34.4097 11.0117 34.3877 11.0264 34.3633C11.041 34.334 11.0532 34.3071 11.063 34.2827C11.0728 34.2583 11.085 34.2388 11.0996 34.2241C11.1631 34.1655 11.2363 34.1045 11.3193 34.041C11.4023 33.9775 11.4854 33.9116 11.5684 33.8433C11.6562 33.77 11.7393 33.6968 11.8174 33.6235C11.9004 33.5503 11.9712 33.4771 12.0298 33.4038C12.0444 33.3794 12.0591 33.3403 12.0737 33.2866C12.0884 33.228 12.1104 33.1743 12.1396 33.1255C12.2129 32.9985 12.269 32.835 12.3081 32.6348C12.3521 32.4346 12.374 32.2148 12.374 31.9756C12.374 31.9512 12.3716 31.9243 12.3667 31.895C12.3667 31.8657 12.3643 31.8389 12.3594 31.8145ZM19.2954 35.3374C19.2954 35.4155 19.2734 35.4863 19.2295 35.5498C19.1855 35.6084 19.1294 35.667 19.061 35.7256C18.9927 35.7842 18.917 35.8428 18.834 35.9014C18.751 35.96 18.6704 36.0259 18.5923 36.0991C18.5679 36.1187 18.5483 36.1479 18.5337 36.187C18.519 36.2212 18.4995 36.2456 18.4751 36.2603C18.4507 36.2847 18.4238 36.2944 18.3945 36.2896C18.3652 36.2847 18.3384 36.2944 18.314 36.3188C18.2798 36.353 18.2456 36.4019 18.2114 36.4653C18.1821 36.5239 18.1431 36.585 18.0942 36.6484C18.0796 36.6729 18.0405 36.7217 17.9771 36.7949C17.9185 36.8682 17.8477 36.9438 17.7646 37.022C17.6865 37.1001 17.6035 37.1709 17.5156 37.2344C17.4326 37.2979 17.3569 37.3296 17.2886 37.3296C17.2495 37.3296 17.2202 37.3198 17.2007 37.3003C17.1812 37.2808 17.1714 37.2588 17.1714 37.2344C17.1714 37.2051 17.1787 37.1709 17.1934 37.1318C17.208 37.0928 17.2153 37.0415 17.2153 36.978C17.2153 36.8706 17.1982 36.7803 17.1641 36.707C17.1299 36.6338 17.1128 36.5776 17.1128 36.5386C17.1177 36.436 17.1445 36.3237 17.1934 36.2017C17.2471 36.0796 17.2739 35.9551 17.2739 35.8281C17.2739 35.7598 17.2642 35.6963 17.2446 35.6377C17.2251 35.5742 17.2153 35.5083 17.2153 35.4399C17.2153 35.3716 17.2324 35.3008 17.2666 35.2275C17.3008 35.1494 17.3228 35.0762 17.3325 35.0078C17.3423 34.9297 17.3496 34.8516 17.3545 34.7734C17.3594 34.6953 17.3618 34.6172 17.3618 34.5391V34.334C17.3618 34.2266 17.3691 34.1289 17.3838 34.041C17.3984 33.9531 17.4131 33.8701 17.4277 33.792C17.4473 33.7139 17.4668 33.6357 17.4863 33.5576C17.5107 33.4795 17.5303 33.3965 17.5449 33.3086C17.5645 33.1914 17.5767 33.0742 17.5815 32.957C17.5864 32.8398 17.5889 32.7227 17.5889 32.6055C17.5938 32.4883 17.5986 32.376 17.6035 32.2686C17.6133 32.1562 17.6304 32.0488 17.6548 31.9463C17.6401 31.9414 17.6182 31.939 17.5889 31.939C17.5254 31.939 17.4717 31.9585 17.4277 31.9976C17.3838 32.0317 17.3447 32.0732 17.3105 32.1221C17.2812 32.166 17.2544 32.2148 17.23 32.2686C17.2104 32.3174 17.1885 32.3564 17.1641 32.3857C17.1445 32.4102 17.1177 32.4272 17.0835 32.437C17.0493 32.4468 17.0225 32.4639 17.0029 32.4883C16.9785 32.5176 16.959 32.5542 16.9443 32.5981C16.9297 32.6421 16.9126 32.6787 16.8931 32.708C16.8833 32.7275 16.8613 32.7397 16.8271 32.7446C16.7979 32.7446 16.7832 32.7568 16.7832 32.7812C16.7832 32.791 16.7832 32.8032 16.7832 32.8179C16.7881 32.8325 16.7905 32.8447 16.7905 32.8545C16.7905 32.874 16.7759 32.8984 16.7466 32.9277C16.7173 32.9521 16.6831 32.979 16.644 33.0083C16.6099 33.0376 16.5781 33.0669 16.5488 33.0962C16.5195 33.1255 16.5049 33.1499 16.5049 33.1694C16.5049 33.1792 16.5049 33.1914 16.5049 33.2061C16.5098 33.2207 16.5122 33.2329 16.5122 33.2427C16.5122 33.2524 16.4951 33.2817 16.4609 33.3306C16.4268 33.3794 16.3853 33.4331 16.3364 33.4917C16.2876 33.5503 16.2388 33.6089 16.1899 33.6675C16.1411 33.7261 16.1021 33.77 16.0728 33.7993C15.9849 33.8872 15.9214 33.9702 15.8823 34.0483C15.8433 34.1265 15.814 34.2021 15.7944 34.2754C15.7798 34.3438 15.7651 34.4121 15.7505 34.4805C15.7407 34.5488 15.7212 34.6147 15.6919 34.6782C15.6821 34.688 15.6626 34.6978 15.6333 34.7075C15.604 34.7124 15.5845 34.7197 15.5747 34.7295C15.5503 34.7832 15.5283 34.8418 15.5088 34.9053C15.4893 34.9688 15.4575 35.0371 15.4136 35.1104C15.4038 35.125 15.3843 35.1445 15.355 35.1689C15.3257 35.1934 15.311 35.2129 15.311 35.2275C15.2866 35.2812 15.2671 35.3447 15.2524 35.418C15.2378 35.4912 15.2256 35.5669 15.2158 35.645C15.2061 35.7231 15.1987 35.8013 15.1938 35.8794C15.189 35.9526 15.1865 36.0161 15.1865 36.0698C15.1865 36.1235 15.1987 36.165 15.2231 36.1943C15.2476 36.2236 15.2598 36.2676 15.2598 36.3262C15.2598 36.3604 15.2476 36.3872 15.2231 36.4067C15.2036 36.4263 15.1768 36.4458 15.1426 36.4653C15.1133 36.48 15.0767 36.4971 15.0327 36.5166C14.9937 36.5361 14.957 36.5605 14.9229 36.5898C14.8105 36.6875 14.7153 36.7754 14.6372 36.8535C14.5591 36.9268 14.4883 36.9951 14.4248 37.0586C14.3613 37.127 14.3052 37.188 14.2563 37.2417C14.2075 37.3003 14.1562 37.3564 14.1025 37.4102C14.0684 37.4053 14.0513 37.3882 14.0513 37.3589C14.0513 37.3052 14.0781 37.2515 14.1318 37.1978C14.1855 37.144 14.2124 37.0952 14.2124 37.0513C14.2124 37.0171 14.2026 36.9902 14.1831 36.9707C14.1685 36.9463 14.1611 36.9121 14.1611 36.8682C14.1611 36.8535 14.1636 36.8242 14.1685 36.7803C14.1782 36.7314 14.188 36.6777 14.1978 36.6191C14.2075 36.5557 14.2173 36.4922 14.2271 36.4287C14.2417 36.3652 14.2539 36.3091 14.2637 36.2603C14.2832 36.1772 14.3076 36.0942 14.3369 36.0112C14.3711 35.9233 14.4028 35.8354 14.4321 35.7476C14.4663 35.6548 14.4932 35.562 14.5127 35.4692C14.5371 35.3765 14.5493 35.2812 14.5493 35.1836C14.5493 35.1396 14.5469 35.103 14.542 35.0737C14.5371 35.0396 14.5347 35.0078 14.5347 34.9785C14.5347 34.9346 14.5396 34.8735 14.5493 34.7954C14.5591 34.7124 14.5688 34.6221 14.5786 34.5244C14.5933 34.4268 14.6055 34.3291 14.6152 34.2314C14.6299 34.1338 14.6421 34.0459 14.6519 33.9678C14.6665 33.7969 14.6738 33.6235 14.6738 33.4478C14.6738 33.272 14.6836 33.0986 14.7031 32.9277C14.7227 32.7715 14.7495 32.6152 14.7837 32.459C14.8228 32.3027 14.8423 32.1465 14.8423 31.9902C14.8423 31.8926 14.8325 31.8047 14.813 31.7266C14.7544 31.7363 14.6958 31.7729 14.6372 31.8364C14.5786 31.8999 14.5225 31.9683 14.4688 32.0415C14.4199 32.1147 14.376 32.1807 14.3369 32.2393C14.2979 32.2979 14.2686 32.3271 14.249 32.3271C14.2393 32.3271 14.2271 32.3271 14.2124 32.3271C14.1978 32.3223 14.1855 32.3198 14.1758 32.3198C14.1514 32.3198 14.1318 32.3467 14.1172 32.4004C14.1025 32.4541 14.083 32.5127 14.0586 32.5762C14.0342 32.6348 14 32.6909 13.9561 32.7446C13.917 32.7983 13.8608 32.8252 13.7876 32.8252C13.7681 32.8252 13.7314 32.8179 13.6777 32.8032C13.624 32.7886 13.5972 32.7544 13.5972 32.7007C13.5972 32.6665 13.6069 32.6348 13.6265 32.6055C13.6509 32.5762 13.6777 32.5493 13.707 32.5249C13.7412 32.5005 13.7729 32.4785 13.8022 32.459C13.8364 32.4346 13.8633 32.4102 13.8828 32.3857C13.8975 32.3613 13.9048 32.3345 13.9048 32.3052C13.9097 32.271 13.9194 32.2417 13.9341 32.2173C14.0513 32.0708 14.1904 31.9268 14.3516 31.7852C14.5176 31.6436 14.6714 31.4946 14.813 31.3384C14.8325 31.3188 14.8398 31.292 14.835 31.2578C14.835 31.2236 14.8472 31.1968 14.8716 31.1772C14.8911 31.1577 14.918 31.1504 14.9521 31.1553C14.9863 31.1553 15.0132 31.1455 15.0327 31.126C15.0474 31.1113 15.0596 31.0845 15.0693 31.0454C15.084 31.0063 15.1035 30.9673 15.1279 30.9282C15.1572 30.8843 15.1914 30.8477 15.2305 30.8184C15.2744 30.7891 15.333 30.7744 15.4062 30.7744C15.4453 30.7744 15.4868 30.7817 15.5308 30.7964C15.5796 30.8062 15.6235 30.8232 15.6626 30.8477C15.7065 30.8672 15.7407 30.8916 15.7651 30.9209C15.7944 30.9453 15.8091 30.9722 15.8091 31.0015C15.8091 31.0503 15.7969 31.1138 15.7725 31.1919C15.7529 31.27 15.7432 31.3555 15.7432 31.4482C15.7432 31.5068 15.7529 31.563 15.7725 31.6167C15.792 31.6655 15.8018 31.7021 15.8018 31.7266C15.792 31.79 15.77 31.8535 15.7358 31.917C15.7017 31.9756 15.6846 32.0537 15.6846 32.1514C15.6846 32.1953 15.6846 32.2441 15.6846 32.2979C15.6895 32.3516 15.6919 32.4053 15.6919 32.459C15.6919 32.5469 15.6797 32.647 15.6553 32.7593C15.6309 32.8667 15.604 32.9717 15.5747 33.0742C15.5503 33.1768 15.5259 33.272 15.5015 33.3599C15.4771 33.4429 15.4648 33.5063 15.4648 33.5503C15.4648 33.5894 15.4819 33.6089 15.5161 33.6089C15.5649 33.6089 15.6284 33.5747 15.7065 33.5063C15.7847 33.438 15.8506 33.3721 15.9043 33.3086C15.9238 33.2891 15.9336 33.2622 15.9336 33.228C15.9385 33.1938 15.9482 33.167 15.9629 33.1475C15.9727 33.1328 15.9946 33.1133 16.0288 33.0889C16.0679 33.0596 16.1069 33.0303 16.146 33.001C16.1851 32.9717 16.2192 32.9448 16.2485 32.9204C16.2778 32.8911 16.2925 32.8691 16.2925 32.8545C16.2925 32.8447 16.29 32.8325 16.2852 32.8179C16.2852 32.8032 16.2852 32.791 16.2852 32.7812C16.2852 32.7568 16.3022 32.7227 16.3364 32.6787C16.3706 32.6348 16.4097 32.5884 16.4536 32.5396C16.4976 32.4858 16.5391 32.4346 16.5781 32.3857C16.6221 32.3369 16.6538 32.2979 16.6733 32.2686C16.6929 32.2393 16.7002 32.2051 16.6953 32.166C16.6953 32.1221 16.7051 32.0854 16.7246 32.0562C16.7832 31.978 16.8613 31.8901 16.959 31.7925C17.0615 31.6948 17.147 31.6191 17.2153 31.5654C17.2544 31.5361 17.2935 31.5166 17.3325 31.5068C17.3716 31.4971 17.4082 31.4775 17.4424 31.4482C17.5156 31.3799 17.584 31.3042 17.6475 31.2212C17.7109 31.1382 17.7744 31.0625 17.8379 30.9941C17.9014 30.9209 17.9648 30.8599 18.0283 30.811C18.0967 30.7622 18.1724 30.7378 18.2554 30.7378C18.2798 30.7378 18.3164 30.75 18.3652 30.7744C18.4141 30.7988 18.4629 30.833 18.5117 30.877C18.5605 30.9209 18.6021 30.9722 18.6362 31.0308C18.6753 31.0845 18.6948 31.1431 18.6948 31.2065C18.6948 31.2456 18.6875 31.2969 18.6729 31.3604C18.6582 31.4189 18.6484 31.4873 18.6436 31.5654C18.6289 31.7412 18.6118 31.9048 18.5923 32.0562C18.5776 32.2075 18.5581 32.3711 18.5337 32.5469C18.5142 32.6787 18.502 32.8057 18.4971 32.9277C18.4971 33.0449 18.4897 33.1377 18.4751 33.2061C18.4507 33.3037 18.4116 33.3989 18.3579 33.4917C18.3091 33.5845 18.2847 33.6943 18.2847 33.8213C18.2847 33.8506 18.2871 33.8823 18.292 33.9165C18.2969 33.9507 18.3042 33.9873 18.314 34.0264C18.3188 34.041 18.3262 34.0532 18.3359 34.063C18.3506 34.0679 18.3628 34.0776 18.3726 34.0923C18.3872 34.1021 18.3994 34.1191 18.4092 34.1436C18.4189 34.168 18.4238 34.2046 18.4238 34.2534C18.4238 34.3804 18.397 34.5073 18.3433 34.6343C18.2896 34.7563 18.2627 34.8882 18.2627 35.0298C18.2627 35.0835 18.27 35.1396 18.2847 35.1982C18.3042 35.252 18.314 35.3057 18.314 35.3594C18.314 35.457 18.292 35.5547 18.248 35.6523C18.209 35.7451 18.1895 35.8477 18.1895 35.96C18.1895 35.9844 18.1919 36.0063 18.1968 36.0259C18.2017 36.0454 18.2163 36.0552 18.2407 36.0552C18.3481 36.0552 18.436 36.0161 18.5044 35.938C18.5776 35.8599 18.646 35.7744 18.7095 35.6816C18.7729 35.5889 18.8389 35.5034 18.9072 35.4253C18.9805 35.3472 19.0684 35.3081 19.1709 35.3081C19.2148 35.3081 19.2563 35.3179 19.2954 35.3374ZM25.3232 28.2622C25.3623 28.3257 25.3818 28.377 25.3818 28.416C25.3818 28.46 25.3696 28.5015 25.3452 28.5405C25.3208 28.5796 25.2891 28.6187 25.25 28.6577C25.2158 28.6919 25.1792 28.7261 25.1401 28.7603C25.1011 28.7944 25.0693 28.8311 25.0449 28.8701C25.001 28.9385 24.9619 29.0068 24.9277 29.0752C24.8984 29.1387 24.8643 29.1973 24.8252 29.251C24.791 29.3047 24.7495 29.3486 24.7007 29.3828C24.6567 29.417 24.5981 29.4341 24.5249 29.4341C24.5005 29.4341 24.4712 29.4292 24.437 29.4194C24.4077 29.4097 24.3784 29.4048 24.3491 29.4048C24.2954 29.4048 24.2466 29.4219 24.2026 29.4561C24.1636 29.4854 24.1172 29.5073 24.0635 29.522C23.9951 29.5415 23.9341 29.5586 23.8804 29.5732C23.8315 29.5879 23.7656 29.6074 23.6826 29.6318H23.5947C23.541 29.6318 23.4873 29.6465 23.4336 29.6758C23.3848 29.7051 23.3042 29.7466 23.1919 29.8003C23.1333 29.8198 23.0552 29.8271 22.9575 29.8223C22.8647 29.8174 22.7598 29.8271 22.6426 29.8516C22.6279 29.8564 22.6084 29.876 22.584 29.9102C22.5596 29.9395 22.5425 29.9565 22.5327 29.9614C22.4644 29.981 22.3862 29.998 22.2983 30.0127C22.2104 30.0225 22.1274 30.042 22.0493 30.0713C21.9761 30.0957 21.9126 30.1348 21.8589 30.1885C21.8101 30.2422 21.7856 30.3203 21.7856 30.4229C21.7856 30.501 21.8052 30.5962 21.8442 30.7085C21.8833 30.8159 21.9248 30.9233 21.9688 31.0308C22.0176 31.1333 22.064 31.2236 22.1079 31.3018C22.1567 31.3799 22.1885 31.4263 22.2031 31.4409C22.2471 31.4897 22.2861 31.5435 22.3203 31.6021C22.3545 31.6558 22.3887 31.7168 22.4229 31.7852C22.4619 31.8486 22.501 31.917 22.54 31.9902C22.584 32.0586 22.6377 32.1294 22.7012 32.2026C22.7402 32.2515 22.7842 32.2979 22.833 32.3418C22.8818 32.3857 22.9282 32.4272 22.9722 32.4663C23.0161 32.5054 23.0527 32.5444 23.082 32.5835C23.1162 32.6226 23.1333 32.6592 23.1333 32.6934C23.1528 32.752 23.2163 32.8252 23.3237 32.9131C23.4312 33.001 23.5312 33.1108 23.624 33.2427C23.6338 33.2573 23.6533 33.2793 23.6826 33.3086C23.7119 33.333 23.7412 33.3599 23.7705 33.3892C23.8047 33.4185 23.834 33.4502 23.8584 33.4844C23.8877 33.5137 23.9023 33.543 23.9023 33.5723C23.9023 33.6113 23.9219 33.6382 23.9609 33.6528C24 33.6675 24.0342 33.6943 24.0635 33.7334C24.0879 33.7627 24.105 33.7969 24.1147 33.8359C24.1245 33.875 24.144 33.9141 24.1733 33.9531C24.2319 34.041 24.3003 34.1362 24.3784 34.2388C24.4614 34.3364 24.5029 34.4585 24.5029 34.605C24.5029 34.6978 24.4834 34.7905 24.4443 34.8833C24.4346 34.9077 24.415 34.9224 24.3857 34.9272C24.3613 34.9321 24.3467 34.9541 24.3418 34.9932C24.3223 35.0615 24.3027 35.1274 24.2832 35.1909C24.2637 35.2495 24.2271 35.3105 24.1733 35.374C24.1196 35.4375 24.0586 35.4961 23.9902 35.5498C23.9219 35.6035 23.8535 35.6719 23.7852 35.7549C23.7363 35.8184 23.6851 35.8745 23.6313 35.9233C23.5776 35.9722 23.5166 36.0234 23.4482 36.0771C23.3848 36.1309 23.3091 36.1919 23.2212 36.2603C23.1333 36.3286 23.0308 36.4165 22.9136 36.5239C22.8745 36.563 22.8232 36.6094 22.7598 36.6631C22.6963 36.7119 22.6011 36.7559 22.4741 36.7949C22.4058 36.8193 22.313 36.8389 22.1958 36.8535C22.0786 36.8682 21.9468 36.8828 21.8003 36.8975C21.6538 36.9072 21.4976 36.917 21.3315 36.9268C21.1655 36.9365 20.9995 36.9463 20.8335 36.9561C20.7114 36.9707 20.5869 36.9854 20.46 37C20.333 37.0098 20.2036 37.0146 20.0718 37.0146C19.8667 37.0146 19.708 37.0024 19.5957 36.978C19.4883 36.9487 19.4346 36.8779 19.4346 36.7656C19.4346 36.7168 19.4443 36.6729 19.4639 36.6338C19.4883 36.5898 19.5176 36.5508 19.5518 36.5166C19.5859 36.4775 19.6201 36.4409 19.6543 36.4067C19.6885 36.3726 19.7178 36.3384 19.7422 36.3042C19.791 36.231 19.835 36.1675 19.874 36.1138C19.9131 36.0552 19.9521 36.0063 19.9912 35.9673C20.0352 35.9282 20.0791 35.8989 20.123 35.8794C20.167 35.8599 20.2207 35.8501 20.2842 35.8501C20.3525 35.8501 20.4258 35.8574 20.5039 35.8721C20.582 35.8818 20.6577 35.8965 20.731 35.916C20.8091 35.9307 20.8799 35.9453 20.9434 35.96C21.0068 35.9697 21.0581 35.9746 21.0972 35.9746C21.1606 35.9746 21.2217 35.9673 21.2803 35.9526C21.3438 35.9331 21.4146 35.9233 21.4927 35.9233C21.5757 35.9233 21.666 35.9331 21.7637 35.9526C21.8662 35.9673 21.959 35.9746 22.042 35.9746C22.1641 35.9746 22.3057 35.9673 22.4668 35.9526C22.6279 35.9331 22.7817 35.9038 22.9282 35.8647C23.0747 35.8257 23.1968 35.7769 23.2944 35.7183C23.397 35.6548 23.4482 35.5815 23.4482 35.4985C23.4482 35.4546 23.4312 35.3936 23.397 35.3154C23.3628 35.2373 23.3188 35.1519 23.2651 35.0591C23.2163 34.9663 23.1602 34.8711 23.0967 34.7734C23.0332 34.6758 22.9722 34.583 22.9136 34.4951C22.8843 34.4561 22.8477 34.4219 22.8037 34.3926C22.7598 34.3584 22.7256 34.3218 22.7012 34.2827C22.6719 34.2388 22.6523 34.1924 22.6426 34.1436C22.6328 34.0898 22.6133 34.0435 22.584 34.0044C22.5303 33.9312 22.4644 33.8652 22.3862 33.8066C22.313 33.7432 22.252 33.6821 22.2031 33.6235C22.1201 33.5259 22.042 33.4136 21.9688 33.2866C21.8955 33.1597 21.8101 33.0352 21.7124 32.9131C21.6831 32.8789 21.6611 32.8545 21.6465 32.8398C21.6318 32.8252 21.6001 32.7764 21.5513 32.6934C21.4976 32.625 21.4316 32.5615 21.3535 32.5029C21.2803 32.4443 21.2168 32.3809 21.1631 32.3125C21.1436 32.2881 21.1338 32.2612 21.1338 32.2319C21.1387 32.1978 21.1313 32.1709 21.1118 32.1514C21.0532 32.0928 20.9873 32.0317 20.9141 31.9683C20.8408 31.8999 20.8042 31.812 20.8042 31.7046C20.8042 31.6313 20.7822 31.5386 20.7383 31.4263C20.6992 31.314 20.6797 31.187 20.6797 31.0454C20.6797 30.9478 20.7017 30.8696 20.7456 30.811C20.7896 30.7524 20.8188 30.689 20.8335 30.6206C20.853 30.5815 20.8628 30.5449 20.8628 30.5107C20.8628 30.4717 20.8726 30.4326 20.8921 30.3936C20.9019 30.3838 20.9214 30.3765 20.9507 30.3716C20.98 30.3618 20.9971 30.3521 21.002 30.3423C21.0215 30.2983 21.041 30.2642 21.0605 30.2397C21.085 30.2104 21.1143 30.1812 21.1484 30.1519C21.1826 30.1177 21.2266 30.0786 21.2803 30.0347C21.334 29.9907 21.4048 29.9297 21.4927 29.8516C21.5073 29.8418 21.5171 29.8247 21.522 29.8003C21.5269 29.771 21.5366 29.7515 21.5513 29.7417C21.5854 29.7124 21.6221 29.6929 21.6611 29.6831C21.7002 29.6733 21.7344 29.6562 21.7637 29.6318C21.8955 29.5439 22.0103 29.4683 22.1079 29.4048C22.2104 29.3413 22.3057 29.2852 22.3936 29.2363C22.4814 29.1826 22.5693 29.1362 22.6572 29.0972C22.7451 29.0581 22.8477 29.019 22.9648 28.98L23.9536 28.6504C24.0073 28.5967 24.0781 28.5674 24.166 28.5625C24.2539 28.5527 24.3467 28.5283 24.4443 28.4893C24.542 28.4355 24.6665 28.3916 24.8179 28.3574C24.9692 28.3184 25.1377 28.2866 25.3232 28.2622ZM31.0435 35.125C31.0435 35.1543 31.0337 35.1836 31.0142 35.2129C30.9995 35.2422 30.98 35.269 30.9556 35.2935C30.9312 35.3179 30.9067 35.3447 30.8823 35.374C30.8579 35.3984 30.8384 35.4253 30.8237 35.4546C30.8042 35.4888 30.7944 35.5254 30.7944 35.5645C30.7993 35.6035 30.7896 35.6401 30.7651 35.6743C30.7358 35.7183 30.6553 35.7939 30.5234 35.9014C30.3965 36.0039 30.2402 36.165 30.0547 36.3848C30.0303 36.4238 30.0107 36.4702 29.9961 36.5239C29.9863 36.5776 29.9692 36.624 29.9448 36.6631C29.9204 36.7021 29.8838 36.7485 29.835 36.8022C29.7861 36.8511 29.7324 36.8975 29.6738 36.9414C29.6201 36.9854 29.5615 37.022 29.498 37.0513C29.4395 37.0854 29.3857 37.1025 29.3369 37.1025C29.2637 37.1025 29.1953 37.0854 29.1318 37.0513C29.0684 37.022 29.0073 36.9829 28.9487 36.9341C28.8901 36.8804 28.8315 36.8193 28.7729 36.751C28.7144 36.6826 28.6509 36.6143 28.5825 36.5459C28.5483 36.5117 28.5166 36.4653 28.4873 36.4067C28.4629 36.3433 28.436 36.2798 28.4067 36.2163C28.3823 36.1479 28.353 36.082 28.3188 36.0186C28.2896 35.9502 28.2505 35.8916 28.2017 35.8428C28.1772 35.8135 28.1406 35.7891 28.0918 35.7695C28.043 35.7451 28.0063 35.7134 27.9819 35.6743C27.9575 35.6401 27.9478 35.606 27.9526 35.5718C27.9575 35.5327 27.9478 35.4937 27.9233 35.4546C27.9038 35.4204 27.8623 35.3496 27.7988 35.2422C27.7354 35.1299 27.667 35.0176 27.5938 34.9053C27.5205 34.793 27.4521 34.6929 27.3887 34.605C27.3252 34.5122 27.2861 34.4658 27.2715 34.4658C27.2031 34.4658 27.1445 34.5 27.0957 34.5684C27.0518 34.6318 27.0151 34.71 26.9858 34.8027C26.9614 34.8906 26.9419 34.9858 26.9272 35.0884C26.9175 35.186 26.9126 35.2666 26.9126 35.3301C26.9126 35.4277 26.9102 35.5156 26.9053 35.5938C26.9004 35.6719 26.8906 35.75 26.876 35.8281C26.8613 35.9014 26.8418 35.9795 26.8174 36.0625C26.793 36.1406 26.7612 36.231 26.7222 36.3335C26.6929 36.4116 26.6636 36.4971 26.6343 36.5898C26.605 36.6777 26.5806 36.7363 26.561 36.7656C26.5464 36.7852 26.5195 36.8022 26.4805 36.8169C26.4414 36.8267 26.395 36.8462 26.3413 36.8755C26.3169 36.8901 26.2949 36.9121 26.2754 36.9414C26.2559 36.9658 26.2339 36.9878 26.2095 37.0073C26.1899 37.0317 26.1631 37.0513 26.1289 37.0659C26.0947 37.0854 26.0532 37.0952 26.0044 37.0952C25.8433 37.0952 25.7627 37.0464 25.7627 36.9487C25.7627 36.9048 25.7725 36.8584 25.792 36.8096C25.8115 36.7559 25.8335 36.7046 25.8579 36.6558C25.8872 36.6021 25.9116 36.5532 25.9312 36.5093C25.9507 36.4604 25.9604 36.4165 25.9604 36.3774C25.9604 36.3286 25.9531 36.2822 25.9385 36.2383C25.9238 36.1895 25.9116 36.1309 25.9019 36.0625H25.9092C25.9189 36.0625 25.9287 36.0576 25.9385 36.0479C25.9482 36.0332 25.9531 36.0186 25.9531 36.0039C25.9531 35.999 25.9482 35.9893 25.9385 35.9746C25.9287 35.9551 25.9165 35.9355 25.9019 35.916C25.8872 35.8965 25.875 35.8794 25.8652 35.8647C25.8555 35.8501 25.8506 35.8428 25.8506 35.8428C25.8506 35.8135 25.8604 35.7769 25.8799 35.7329C25.9043 35.689 25.9312 35.6377 25.9604 35.5791C25.9897 35.5205 26.0142 35.457 26.0337 35.3887C26.0581 35.3203 26.0703 35.2471 26.0703 35.1689C26.0703 35.1201 26.0605 35.0713 26.041 35.0225C26.0215 34.9688 26.0117 34.9126 26.0117 34.854C26.0117 34.8198 26.0166 34.7734 26.0264 34.7148C26.041 34.6562 26.0581 34.5928 26.0776 34.5244C26.1021 34.4512 26.1265 34.3828 26.1509 34.3193C26.1753 34.251 26.2021 34.1924 26.2314 34.1436V34.1216C26.2314 34.0825 26.2217 34.0532 26.2021 34.0337C26.1875 34.0093 26.1802 33.9727 26.1802 33.9238C26.1802 33.8994 26.1875 33.8701 26.2021 33.8359C26.2168 33.7969 26.2266 33.7529 26.2314 33.7041C26.2363 33.5869 26.2437 33.4795 26.2534 33.3818C26.2681 33.2793 26.2827 33.1816 26.2974 33.0889C26.312 32.9961 26.3267 32.9033 26.3413 32.8105C26.3608 32.7129 26.3779 32.6104 26.3926 32.5029C26.4023 32.4492 26.4243 32.3906 26.4585 32.3271C26.4927 32.2588 26.5098 32.1855 26.5098 32.1074C26.5098 32.0391 26.5 31.978 26.4805 31.9243C26.4609 31.8657 26.4512 31.8047 26.4512 31.7412C26.4902 31.6582 26.5122 31.585 26.5171 31.5215C26.5269 31.4531 26.5415 31.3604 26.561 31.2432C26.6001 30.9795 26.6465 30.7036 26.7002 30.4155C26.7539 30.1274 26.7808 29.8687 26.7808 29.6392C26.7808 29.5757 26.771 29.5269 26.7515 29.4927C26.7319 29.4585 26.7222 29.4219 26.7222 29.3828C26.7271 29.334 26.7417 29.2559 26.7661 29.1484C26.7954 29.041 26.8247 28.9165 26.854 28.7749C26.8833 28.6284 26.9102 28.4697 26.9346 28.2988C26.959 28.123 26.9712 27.9424 26.9712 27.7568C26.9712 27.6885 26.9663 27.6421 26.9565 27.6177C26.9468 27.5884 26.9297 27.5737 26.9053 27.5737C26.8662 27.5737 26.8149 27.5908 26.7515 27.625C26.688 27.6592 26.6245 27.6982 26.561 27.7422C26.5513 27.752 26.5415 27.7715 26.5317 27.8008C26.5269 27.8301 26.5195 27.8472 26.5098 27.8521C26.4707 27.8667 26.4316 27.8789 26.3926 27.8887C26.3584 27.8984 26.3218 27.9229 26.2827 27.9619C26.2632 27.9863 26.2559 28.0059 26.2607 28.0205C26.2656 28.0352 26.2559 28.0522 26.2314 28.0718C26.207 28.0913 26.1851 28.106 26.1655 28.1157C26.146 28.1206 26.1313 28.1426 26.1216 28.1816C26.1167 28.2061 26.1069 28.2354 26.0923 28.2695C26.0825 28.3037 26.0654 28.3379 26.041 28.3721C26.0215 28.4014 25.9971 28.4282 25.9678 28.4526C25.9434 28.4771 25.9141 28.4893 25.8799 28.4893C25.8457 28.4893 25.814 28.4795 25.7847 28.46C25.7603 28.4355 25.748 28.3843 25.748 28.3062C25.748 28.2524 25.7529 28.2061 25.7627 28.167C25.7725 28.123 25.7822 28.0889 25.792 28.0645C25.8066 28.0352 25.8237 28.0107 25.8433 27.9912V27.9985H25.8579C25.8579 27.9985 25.8774 27.979 25.9165 27.9399C25.9556 27.9009 26.0044 27.8521 26.063 27.7935C26.1216 27.7349 26.1851 27.6714 26.2534 27.603C26.3218 27.5347 26.3877 27.4712 26.4512 27.4126C26.4707 27.3931 26.4976 27.3857 26.5317 27.3906C26.5659 27.3955 26.5928 27.3857 26.6123 27.3613C26.7344 27.2393 26.8198 27.1489 26.8687 27.0903C26.9224 27.0269 26.9565 26.9805 26.9712 26.9512C26.9907 26.917 27.0054 26.8901 27.0151 26.8706C27.0298 26.8462 27.0591 26.8096 27.103 26.7607C27.1714 26.6875 27.2373 26.6313 27.3008 26.5923C27.3691 26.5532 27.4497 26.4995 27.5425 26.4312C27.5815 26.4019 27.6157 26.3677 27.645 26.3286C27.6743 26.2847 27.7183 26.2627 27.7769 26.2627C27.9038 26.2627 27.9795 26.2773 28.0039 26.3066C28.0283 26.3359 28.0405 26.3701 28.0405 26.4092C28.0405 26.5117 28.0308 26.6362 28.0112 26.7827C27.9966 26.9243 27.9795 27.061 27.96 27.1929C27.9404 27.3247 27.9209 27.437 27.9014 27.5298C27.8867 27.6226 27.877 27.6689 27.8721 27.6689C27.8721 27.7227 27.8794 27.7666 27.894 27.8008C27.9136 27.835 27.9233 27.8691 27.9233 27.9033C27.894 28.2646 27.8403 28.6479 27.7622 29.0532C27.689 29.4585 27.6328 29.8613 27.5938 30.2617C27.5693 30.5059 27.5547 30.7573 27.5498 31.0161C27.5498 31.2749 27.5303 31.5166 27.4912 31.7412C27.4814 31.7998 27.4619 31.856 27.4326 31.9097C27.4082 31.9585 27.3911 32.0098 27.3813 32.0635C27.3716 32.1514 27.3667 32.2417 27.3667 32.3345C27.3667 32.4224 27.3618 32.5225 27.3521 32.6348C27.3423 32.7471 27.3228 32.8765 27.2935 33.0229C27.269 33.1694 27.2251 33.3428 27.1616 33.543C27.1567 33.5576 27.1445 33.5869 27.125 33.6309C27.1055 33.6748 27.0981 33.6992 27.103 33.7041C27.1226 33.7334 27.1445 33.748 27.1689 33.748C27.2471 33.748 27.3325 33.7114 27.4253 33.6382C27.5181 33.5601 27.6108 33.4648 27.7036 33.3525C27.7964 33.2402 27.8892 33.1182 27.9819 32.9863C28.0747 32.8496 28.165 32.7251 28.2529 32.6128C28.2822 32.5737 28.3066 32.5273 28.3262 32.4736C28.3506 32.4199 28.3799 32.3735 28.4141 32.3345C28.4629 32.2759 28.5264 32.1904 28.6045 32.0781C28.6875 31.9658 28.7681 31.8486 28.8462 31.7266C28.9292 31.5996 29.0049 31.48 29.0732 31.3677C29.1416 31.2505 29.188 31.1577 29.2124 31.0894C29.2271 31.0552 29.249 31.0088 29.2783 30.9502C29.3125 30.8867 29.3467 30.8257 29.3809 30.7671C29.415 30.7036 29.4443 30.6499 29.4688 30.606C29.498 30.5571 29.5127 30.5303 29.5127 30.5254C29.5176 30.4521 29.5591 30.4155 29.6372 30.4155C29.6665 30.4155 29.7056 30.4302 29.7544 30.4595C29.8081 30.4839 29.8594 30.5181 29.9082 30.562C29.957 30.6011 29.9985 30.6475 30.0327 30.7012C30.0718 30.75 30.0913 30.7964 30.0913 30.8403C30.0913 30.9087 30.0547 30.9844 29.9814 31.0674C29.9082 31.1504 29.835 31.231 29.7617 31.3091C29.7178 31.3579 29.647 31.4507 29.5493 31.5874C29.4517 31.7192 29.3467 31.8682 29.2344 32.0342C29.127 32.1953 29.0195 32.354 28.9121 32.5103C28.8047 32.6665 28.7144 32.791 28.6411 32.8838C28.5825 32.957 28.5288 33.0181 28.48 33.0669C28.436 33.1157 28.3994 33.1597 28.3701 33.1987C28.3408 33.2329 28.3164 33.2671 28.2969 33.3013C28.2822 33.3306 28.2749 33.3696 28.2749 33.4185C28.2749 33.4429 28.2798 33.4844 28.2896 33.543C28.2993 33.6016 28.314 33.6699 28.3335 33.748C28.353 33.8213 28.375 33.8994 28.3994 33.9824C28.4238 34.0605 28.4482 34.1338 28.4727 34.2021C28.4824 34.2217 28.4995 34.2485 28.5239 34.2827C28.5532 34.3169 28.5728 34.3438 28.5825 34.3633C28.6655 34.5488 28.7485 34.7441 28.8315 34.9492C28.9146 35.1543 29 35.3447 29.0879 35.5205C29.1758 35.6914 29.2686 35.8354 29.3662 35.9526C29.4639 36.0649 29.5688 36.1211 29.6812 36.1211C29.7349 36.1211 29.7764 36.1089 29.8057 36.0845C29.835 36.0601 29.8643 36.0308 29.8936 35.9966C29.9229 35.9575 29.957 35.916 29.9961 35.8721C30.04 35.8232 30.0986 35.7744 30.1719 35.7256C30.1963 35.7109 30.2207 35.7036 30.2451 35.7036C30.2744 35.7036 30.3013 35.7012 30.3257 35.6963C30.3501 35.6914 30.3696 35.6792 30.3843 35.6597C30.4038 35.6401 30.4136 35.6035 30.4136 35.5498C30.4136 35.5059 30.4209 35.4766 30.4355 35.4619C30.4502 35.4424 30.4673 35.4326 30.4868 35.4326C30.5112 35.4277 30.5332 35.4253 30.5527 35.4253C30.5771 35.4253 30.5942 35.418 30.604 35.4033C30.6382 35.3643 30.6602 35.3203 30.6699 35.2715C30.6846 35.2178 30.6992 35.1689 30.7139 35.125C30.7334 35.0811 30.7578 35.0444 30.7871 35.0151C30.8164 34.981 30.8652 34.9639 30.9336 34.9639C30.9434 35.0029 30.9629 35.0298 30.9922 35.0444C31.0215 35.0591 31.0386 35.0859 31.0435 35.125ZM33.7534 35.1836C33.7729 35.2275 33.7827 35.2739 33.7827 35.3228C33.7827 35.3716 33.7705 35.4155 33.7461 35.4546C33.7266 35.4888 33.6997 35.5229 33.6655 35.5571C33.6362 35.5864 33.6021 35.6157 33.563 35.645C33.5288 35.6694 33.4995 35.6963 33.4751 35.7256C33.4653 35.7451 33.458 35.7744 33.4531 35.8135C33.4531 35.8477 33.4434 35.8745 33.4238 35.894C33.3652 35.9575 33.292 36.0112 33.2041 36.0552C33.1211 36.0991 33.0479 36.1553 32.9844 36.2236C32.9453 36.2676 32.916 36.3115 32.8965 36.3555C32.877 36.3945 32.833 36.4409 32.7646 36.4946C32.7109 36.5337 32.6597 36.5874 32.6108 36.6558C32.562 36.7241 32.5083 36.7925 32.4497 36.8608C32.3911 36.9243 32.3228 36.9805 32.2446 37.0293C32.1665 37.083 32.0737 37.1099 31.9663 37.1099C31.9419 37.1099 31.9199 37.1074 31.9004 37.1025C31.8809 37.1025 31.8589 37.1001 31.8345 37.0952C31.8345 37.0952 31.8174 37.0854 31.7832 37.0659C31.749 37.0464 31.71 37.0073 31.666 36.9487C31.627 36.8901 31.5903 36.8071 31.5562 36.6997C31.522 36.5923 31.5049 36.4507 31.5049 36.2749C31.5049 36.231 31.5122 36.1846 31.5269 36.1357C31.5464 36.082 31.5659 36.0308 31.5854 35.9819C31.6099 35.9331 31.6294 35.8843 31.644 35.8354C31.6636 35.7817 31.6733 35.7329 31.6733 35.689C31.6733 35.645 31.6636 35.6035 31.644 35.5645C31.6245 35.5254 31.6147 35.4839 31.6147 35.4399C31.6147 35.396 31.6343 35.3667 31.6733 35.3521C31.7124 35.3325 31.7319 35.2983 31.7319 35.2495C31.7319 35.2251 31.7295 35.2031 31.7246 35.1836C31.7246 35.1641 31.7246 35.1421 31.7246 35.1177C31.7246 35.0591 31.7344 35.02 31.7539 35.0005C31.7734 34.9761 31.7832 34.9443 31.7832 34.9053C31.7832 34.8711 31.7759 34.8467 31.7612 34.832C31.7515 34.8125 31.7466 34.7881 31.7466 34.7588C31.7466 34.7246 31.7588 34.6929 31.7832 34.6636C31.8076 34.6294 31.8247 34.583 31.8345 34.5244C31.8687 34.4121 31.8955 34.2803 31.915 34.1289C31.9346 33.9727 31.9565 33.8066 31.981 33.6309C32.0103 33.4502 32.042 33.2598 32.0762 33.0596C32.1104 32.8545 32.1592 32.6494 32.2227 32.4443C32.2422 32.376 32.2617 32.2783 32.2812 32.1514C32.3057 32.0195 32.3203 31.8828 32.3252 31.7412C32.3008 31.7266 32.2837 31.7192 32.2739 31.7192C32.2349 31.7192 32.2056 31.751 32.186 31.8145C32.1714 31.8779 32.147 31.9243 32.1128 31.9536C32.0884 31.9731 32.0591 31.9829 32.0249 31.9829C31.9956 31.9829 31.9688 31.9902 31.9443 32.0049C31.915 32.0293 31.8906 32.0586 31.8711 32.0928C31.8564 32.1221 31.8394 32.1514 31.8198 32.1807C31.8052 32.21 31.7832 32.2393 31.7539 32.2686C31.7246 32.2979 31.6807 32.3198 31.6221 32.3345C31.6123 32.3394 31.6074 32.3516 31.6074 32.3711C31.6074 32.3857 31.5977 32.3931 31.5781 32.3931H31.5635C31.5635 32.3784 31.5513 32.3662 31.5269 32.3564C31.5073 32.3418 31.4829 32.3271 31.4536 32.3125C31.4243 32.2979 31.3975 32.2808 31.373 32.2612C31.3535 32.2417 31.3438 32.2173 31.3438 32.188C31.3438 32.144 31.3535 32.1099 31.373 32.0854C31.3926 32.061 31.4194 32.0415 31.4536 32.0269C31.4878 32.0122 31.522 31.9976 31.5562 31.9829C31.5952 31.9634 31.6343 31.9365 31.6733 31.9023C31.7222 31.8535 31.7759 31.7974 31.8345 31.7339C31.8979 31.6704 31.9614 31.6069 32.0249 31.5435C32.0884 31.4751 32.1543 31.4116 32.2227 31.353C32.2959 31.2896 32.3691 31.2334 32.4424 31.1846C32.457 31.1748 32.4595 31.165 32.4497 31.1553C32.4448 31.1455 32.4595 31.1382 32.4937 31.1333C32.5083 31.1333 32.5278 31.126 32.5522 31.1113C32.5815 31.0918 32.6084 31.0723 32.6328 31.0527C32.6621 31.0283 32.6865 31.0088 32.7061 30.9941C32.7256 30.9746 32.7378 30.9648 32.7427 30.9648C32.7524 30.9648 32.7622 30.9673 32.772 30.9722C32.7866 30.9722 32.7988 30.9722 32.8086 30.9722C32.8477 30.9722 32.8916 30.9624 32.9404 30.9429C32.9941 30.9185 33.0894 30.9062 33.2261 30.9062C33.2798 30.9062 33.3262 30.9233 33.3652 30.9575C33.4092 30.9868 33.4312 31.0503 33.4312 31.1479C33.4312 31.1772 33.4189 31.2236 33.3945 31.2871C33.3701 31.3506 33.3433 31.4263 33.314 31.5142C33.2847 31.6021 33.2578 31.6997 33.2334 31.8071C33.209 31.9146 33.1968 32.0269 33.1968 32.144C33.1968 32.1929 33.1992 32.2441 33.2041 32.2979C33.209 32.3467 33.2114 32.3955 33.2114 32.4443C33.2114 32.5322 33.1943 32.6079 33.1602 32.6714C33.1309 32.73 33.1089 32.8008 33.0942 32.8838C33.0747 32.9863 33.0649 33.0938 33.0649 33.2061C33.0649 33.3184 33.0576 33.4307 33.043 33.543C33.0039 33.7773 32.9575 34.0044 32.9038 34.2241C32.8501 34.4438 32.8037 34.6709 32.7646 34.9053C32.75 34.9834 32.7256 35.0835 32.6914 35.2056C32.6621 35.3276 32.6475 35.457 32.6475 35.5938C32.6475 35.7207 32.6694 35.8379 32.7134 35.9453C32.7866 35.9404 32.8477 35.9185 32.8965 35.8794C32.9453 35.8403 32.9893 35.7964 33.0283 35.7476C33.0674 35.6987 33.104 35.6475 33.1382 35.5938C33.1772 35.54 33.2188 35.4937 33.2627 35.4546C33.292 35.4302 33.3335 35.4131 33.3872 35.4033C33.4458 35.3887 33.4946 35.3691 33.5337 35.3447C33.5728 35.3203 33.5996 35.2861 33.6143 35.2422C33.6289 35.1982 33.6606 35.1763 33.7095 35.1763C33.7192 35.1763 33.7266 35.1787 33.7314 35.1836C33.7363 35.1836 33.7437 35.1836 33.7534 35.1836ZM34.0244 27.8008C34.0391 27.8301 34.0464 27.8618 34.0464 27.896C34.0464 27.9546 34.0269 28.0181 33.9878 28.0864C33.9487 28.1548 33.9048 28.2207 33.856 28.2842C33.812 28.3477 33.7681 28.4062 33.7241 28.46C33.6802 28.5088 33.6533 28.543 33.6436 28.5625C33.6143 28.626 33.5898 28.7114 33.5703 28.8188C33.5557 28.9263 33.5239 29.0239 33.4751 29.1118C33.4556 29.1509 33.4385 29.1802 33.4238 29.1997C33.4092 29.2192 33.3921 29.2632 33.3726 29.3315C33.353 29.3755 33.3286 29.4268 33.2993 29.4854C33.27 29.5439 33.2383 29.6001 33.2041 29.6538C33.1699 29.7026 33.1357 29.7466 33.1016 29.7856C33.0674 29.8198 33.0356 29.8369 33.0063 29.8369C32.8794 29.8369 32.7915 29.7759 32.7427 29.6538C32.6987 29.5269 32.6768 29.3779 32.6768 29.207C32.6768 29.1387 32.6792 29.0679 32.6841 28.9946C32.6938 28.9214 32.7036 28.8506 32.7134 28.7822C32.7231 28.709 32.7476 28.6553 32.7866 28.6211C32.8257 28.5869 32.8574 28.5332 32.8818 28.46C32.9062 28.3965 32.9233 28.3354 32.9331 28.2769C32.9429 28.2134 32.9526 28.1548 32.9624 28.1011C32.9771 28.0474 32.9917 28.001 33.0063 27.9619C33.0259 27.918 33.0552 27.8813 33.0942 27.8521C33.1235 27.8325 33.1577 27.8154 33.1968 27.8008C33.2407 27.7861 33.2847 27.7764 33.3286 27.7715C33.3774 27.7617 33.4238 27.7544 33.4678 27.7495C33.5166 27.7446 33.5557 27.7422 33.585 27.7422C33.585 27.7471 33.6069 27.7397 33.6509 27.7202C33.6948 27.6958 33.7437 27.6836 33.7974 27.6836C33.8071 27.6836 33.8389 27.6934 33.8926 27.7129C33.9512 27.7275 33.9951 27.7568 34.0244 27.8008ZM40.0669 35.3374C40.0669 35.4155 40.0449 35.4863 40.001 35.5498C39.957 35.6084 39.9009 35.667 39.8325 35.7256C39.7642 35.7842 39.6885 35.8428 39.6055 35.9014C39.5225 35.96 39.4419 36.0259 39.3638 36.0991C39.3394 36.1187 39.3198 36.1479 39.3052 36.187C39.2905 36.2212 39.271 36.2456 39.2466 36.2603C39.2222 36.2847 39.1953 36.2944 39.166 36.2896C39.1367 36.2847 39.1099 36.2944 39.0854 36.3188C39.0513 36.353 39.0171 36.4019 38.9829 36.4653C38.9536 36.5239 38.9146 36.585 38.8657 36.6484C38.8511 36.6729 38.812 36.7217 38.7485 36.7949C38.6899 36.8682 38.6191 36.9438 38.5361 37.022C38.458 37.1001 38.375 37.1709 38.2871 37.2344C38.2041 37.2979 38.1284 37.3296 38.0601 37.3296C38.021 37.3296 37.9917 37.3198 37.9722 37.3003C37.9526 37.2808 37.9429 37.2588 37.9429 37.2344C37.9429 37.2051 37.9502 37.1709 37.9648 37.1318C37.9795 37.0928 37.9868 37.0415 37.9868 36.978C37.9868 36.8706 37.9697 36.7803 37.9355 36.707C37.9014 36.6338 37.8843 36.5776 37.8843 36.5386C37.8892 36.436 37.916 36.3237 37.9648 36.2017C38.0186 36.0796 38.0454 35.9551 38.0454 35.8281C38.0454 35.7598 38.0356 35.6963 38.0161 35.6377C37.9966 35.5742 37.9868 35.5083 37.9868 35.4399C37.9868 35.3716 38.0039 35.3008 38.0381 35.2275C38.0723 35.1494 38.0942 35.0762 38.104 35.0078C38.1138 34.9297 38.1211 34.8516 38.126 34.7734C38.1309 34.6953 38.1333 34.6172 38.1333 34.5391V34.334C38.1333 34.2266 38.1406 34.1289 38.1553 34.041C38.1699 33.9531 38.1846 33.8701 38.1992 33.792C38.2188 33.7139 38.2383 33.6357 38.2578 33.5576C38.2822 33.4795 38.3018 33.3965 38.3164 33.3086C38.3359 33.1914 38.3481 33.0742 38.353 32.957C38.3579 32.8398 38.3604 32.7227 38.3604 32.6055C38.3652 32.4883 38.3701 32.376 38.375 32.2686C38.3848 32.1562 38.4019 32.0488 38.4263 31.9463C38.4116 31.9414 38.3896 31.939 38.3604 31.939C38.2969 31.939 38.2432 31.9585 38.1992 31.9976C38.1553 32.0317 38.1162 32.0732 38.082 32.1221C38.0527 32.166 38.0259 32.2148 38.0015 32.2686C37.9819 32.3174 37.96 32.3564 37.9355 32.3857C37.916 32.4102 37.8892 32.4272 37.855 32.437C37.8208 32.4468 37.7939 32.4639 37.7744 32.4883C37.75 32.5176 37.7305 32.5542 37.7158 32.5981C37.7012 32.6421 37.6841 32.6787 37.6646 32.708C37.6548 32.7275 37.6328 32.7397 37.5986 32.7446C37.5693 32.7446 37.5547 32.7568 37.5547 32.7812C37.5547 32.791 37.5547 32.8032 37.5547 32.8179C37.5596 32.8325 37.562 32.8447 37.562 32.8545C37.562 32.874 37.5474 32.8984 37.5181 32.9277C37.4888 32.9521 37.4546 32.979 37.4155 33.0083C37.3813 33.0376 37.3496 33.0669 37.3203 33.0962C37.291 33.1255 37.2764 33.1499 37.2764 33.1694C37.2764 33.1792 37.2764 33.1914 37.2764 33.2061C37.2812 33.2207 37.2837 33.2329 37.2837 33.2427C37.2837 33.2524 37.2666 33.2817 37.2324 33.3306C37.1982 33.3794 37.1567 33.4331 37.1079 33.4917C37.0591 33.5503 37.0103 33.6089 36.9614 33.6675C36.9126 33.7261 36.8735 33.77 36.8442 33.7993C36.7563 33.8872 36.6929 33.9702 36.6538 34.0483C36.6147 34.1265 36.5854 34.2021 36.5659 34.2754C36.5513 34.3438 36.5366 34.4121 36.522 34.4805C36.5122 34.5488 36.4927 34.6147 36.4634 34.6782C36.4536 34.688 36.4341 34.6978 36.4048 34.7075C36.3755 34.7124 36.356 34.7197 36.3462 34.7295C36.3218 34.7832 36.2998 34.8418 36.2803 34.9053C36.2607 34.9688 36.229 35.0371 36.1851 35.1104C36.1753 35.125 36.1558 35.1445 36.1265 35.1689C36.0972 35.1934 36.0825 35.2129 36.0825 35.2275C36.0581 35.2812 36.0386 35.3447 36.0239 35.418C36.0093 35.4912 35.9971 35.5669 35.9873 35.645C35.9775 35.7231 35.9702 35.8013 35.9653 35.8794C35.9604 35.9526 35.958 36.0161 35.958 36.0698C35.958 36.1235 35.9702 36.165 35.9946 36.1943C36.019 36.2236 36.0312 36.2676 36.0312 36.3262C36.0312 36.3604 36.019 36.3872 35.9946 36.4067C35.9751 36.4263 35.9482 36.4458 35.9141 36.4653C35.8848 36.48 35.8481 36.4971 35.8042 36.5166C35.7651 36.5361 35.7285 36.5605 35.6943 36.5898C35.582 36.6875 35.4868 36.7754 35.4087 36.8535C35.3306 36.9268 35.2598 36.9951 35.1963 37.0586C35.1328 37.127 35.0767 37.188 35.0278 37.2417C34.979 37.3003 34.9277 37.3564 34.874 37.4102C34.8398 37.4053 34.8228 37.3882 34.8228 37.3589C34.8228 37.3052 34.8496 37.2515 34.9033 37.1978C34.957 37.144 34.9839 37.0952 34.9839 37.0513C34.9839 37.0171 34.9741 36.9902 34.9546 36.9707C34.9399 36.9463 34.9326 36.9121 34.9326 36.8682C34.9326 36.8535 34.9351 36.8242 34.9399 36.7803C34.9497 36.7314 34.9595 36.6777 34.9692 36.6191C34.979 36.5557 34.9888 36.4922 34.9985 36.4287C35.0132 36.3652 35.0254 36.3091 35.0352 36.2603C35.0547 36.1772 35.0791 36.0942 35.1084 36.0112C35.1426 35.9233 35.1743 35.8354 35.2036 35.7476C35.2378 35.6548 35.2646 35.562 35.2842 35.4692C35.3086 35.3765 35.3208 35.2812 35.3208 35.1836C35.3208 35.1396 35.3184 35.103 35.3135 35.0737C35.3086 35.0396 35.3062 35.0078 35.3062 34.9785C35.3062 34.9346 35.311 34.8735 35.3208 34.7954C35.3306 34.7124 35.3403 34.6221 35.3501 34.5244C35.3647 34.4268 35.377 34.3291 35.3867 34.2314C35.4014 34.1338 35.4136 34.0459 35.4233 33.9678C35.438 33.7969 35.4453 33.6235 35.4453 33.4478C35.4453 33.272 35.4551 33.0986 35.4746 32.9277C35.4941 32.7715 35.521 32.6152 35.5552 32.459C35.5942 32.3027 35.6138 32.1465 35.6138 31.9902C35.6138 31.8926 35.604 31.8047 35.5845 31.7266C35.5259 31.7363 35.4673 31.7729 35.4087 31.8364C35.3501 31.8999 35.2939 31.9683 35.2402 32.0415C35.1914 32.1147 35.1475 32.1807 35.1084 32.2393C35.0693 32.2979 35.04 32.3271 35.0205 32.3271C35.0107 32.3271 34.9985 32.3271 34.9839 32.3271C34.9692 32.3223 34.957 32.3198 34.9473 32.3198C34.9229 32.3198 34.9033 32.3467 34.8887 32.4004C34.874 32.4541 34.8545 32.5127 34.8301 32.5762C34.8057 32.6348 34.7715 32.6909 34.7275 32.7446C34.6885 32.7983 34.6323 32.8252 34.5591 32.8252C34.5396 32.8252 34.5029 32.8179 34.4492 32.8032C34.3955 32.7886 34.3687 32.7544 34.3687 32.7007C34.3687 32.6665 34.3784 32.6348 34.3979 32.6055C34.4224 32.5762 34.4492 32.5493 34.4785 32.5249C34.5127 32.5005 34.5444 32.4785 34.5737 32.459C34.6079 32.4346 34.6348 32.4102 34.6543 32.3857C34.6689 32.3613 34.6763 32.3345 34.6763 32.3052C34.6812 32.271 34.6909 32.2417 34.7056 32.2173C34.8228 32.0708 34.9619 31.9268 35.123 31.7852C35.2891 31.6436 35.4429 31.4946 35.5845 31.3384C35.604 31.3188 35.6113 31.292 35.6064 31.2578C35.6064 31.2236 35.6187 31.1968 35.6431 31.1772C35.6626 31.1577 35.6895 31.1504 35.7236 31.1553C35.7578 31.1553 35.7847 31.1455 35.8042 31.126C35.8188 31.1113 35.8311 31.0845 35.8408 31.0454C35.8555 31.0063 35.875 30.9673 35.8994 30.9282C35.9287 30.8843 35.9629 30.8477 36.002 30.8184C36.0459 30.7891 36.1045 30.7744 36.1777 30.7744C36.2168 30.7744 36.2583 30.7817 36.3022 30.7964C36.3511 30.8062 36.395 30.8232 36.4341 30.8477C36.478 30.8672 36.5122 30.8916 36.5366 30.9209C36.5659 30.9453 36.5806 30.9722 36.5806 31.0015C36.5806 31.0503 36.5684 31.1138 36.5439 31.1919C36.5244 31.27 36.5146 31.3555 36.5146 31.4482C36.5146 31.5068 36.5244 31.563 36.5439 31.6167C36.5635 31.6655 36.5732 31.7021 36.5732 31.7266C36.5635 31.79 36.5415 31.8535 36.5073 31.917C36.4731 31.9756 36.4561 32.0537 36.4561 32.1514C36.4561 32.1953 36.4561 32.2441 36.4561 32.2979C36.4609 32.3516 36.4634 32.4053 36.4634 32.459C36.4634 32.5469 36.4512 32.647 36.4268 32.7593C36.4023 32.8667 36.3755 32.9717 36.3462 33.0742C36.3218 33.1768 36.2974 33.272 36.2729 33.3599C36.2485 33.4429 36.2363 33.5063 36.2363 33.5503C36.2363 33.5894 36.2534 33.6089 36.2876 33.6089C36.3364 33.6089 36.3999 33.5747 36.478 33.5063C36.5562 33.438 36.6221 33.3721 36.6758 33.3086C36.6953 33.2891 36.7051 33.2622 36.7051 33.228C36.71 33.1938 36.7197 33.167 36.7344 33.1475C36.7441 33.1328 36.7661 33.1133 36.8003 33.0889C36.8394 33.0596 36.8784 33.0303 36.9175 33.001C36.9565 32.9717 36.9907 32.9448 37.02 32.9204C37.0493 32.8911 37.064 32.8691 37.064 32.8545C37.064 32.8447 37.0615 32.8325 37.0566 32.8179C37.0566 32.8032 37.0566 32.791 37.0566 32.7812C37.0566 32.7568 37.0737 32.7227 37.1079 32.6787C37.1421 32.6348 37.1812 32.5884 37.2251 32.5396C37.269 32.4858 37.3105 32.4346 37.3496 32.3857C37.3936 32.3369 37.4253 32.2979 37.4448 32.2686C37.4644 32.2393 37.4717 32.2051 37.4668 32.166C37.4668 32.1221 37.4766 32.0854 37.4961 32.0562C37.5547 31.978 37.6328 31.8901 37.7305 31.7925C37.833 31.6948 37.9185 31.6191 37.9868 31.5654C38.0259 31.5361 38.0649 31.5166 38.104 31.5068C38.1431 31.4971 38.1797 31.4775 38.2139 31.4482C38.2871 31.3799 38.3555 31.3042 38.4189 31.2212C38.4824 31.1382 38.5459 31.0625 38.6094 30.9941C38.6729 30.9209 38.7363 30.8599 38.7998 30.811C38.8682 30.7622 38.9438 30.7378 39.0269 30.7378C39.0513 30.7378 39.0879 30.75 39.1367 30.7744C39.1855 30.7988 39.2344 30.833 39.2832 30.877C39.332 30.9209 39.3735 30.9722 39.4077 31.0308C39.4468 31.0845 39.4663 31.1431 39.4663 31.2065C39.4663 31.2456 39.459 31.2969 39.4443 31.3604C39.4297 31.4189 39.4199 31.4873 39.415 31.5654C39.4004 31.7412 39.3833 31.9048 39.3638 32.0562C39.3491 32.2075 39.3296 32.3711 39.3052 32.5469C39.2856 32.6787 39.2734 32.8057 39.2686 32.9277C39.2686 33.0449 39.2612 33.1377 39.2466 33.2061C39.2222 33.3037 39.1831 33.3989 39.1294 33.4917C39.0806 33.5845 39.0562 33.6943 39.0562 33.8213C39.0562 33.8506 39.0586 33.8823 39.0635 33.9165C39.0684 33.9507 39.0757 33.9873 39.0854 34.0264C39.0903 34.041 39.0977 34.0532 39.1074 34.063C39.1221 34.0679 39.1343 34.0776 39.144 34.0923C39.1587 34.1021 39.1709 34.1191 39.1807 34.1436C39.1904 34.168 39.1953 34.2046 39.1953 34.2534C39.1953 34.3804 39.1685 34.5073 39.1147 34.6343C39.061 34.7563 39.0342 34.8882 39.0342 35.0298C39.0342 35.0835 39.0415 35.1396 39.0562 35.1982C39.0757 35.252 39.0854 35.3057 39.0854 35.3594C39.0854 35.457 39.0635 35.5547 39.0195 35.6523C38.9805 35.7451 38.9609 35.8477 38.9609 35.96C38.9609 35.9844 38.9634 36.0063 38.9683 36.0259C38.9731 36.0454 38.9878 36.0552 39.0122 36.0552C39.1196 36.0552 39.2075 36.0161 39.2759 35.938C39.3491 35.8599 39.4175 35.7744 39.481 35.6816C39.5444 35.5889 39.6104 35.5034 39.6787 35.4253C39.752 35.3472 39.8398 35.3081 39.9424 35.3081C39.9863 35.3081 40.0278 35.3179 40.0669 35.3374Z" fill="#D6A994"/>
</g>
<defs>
<filter id="filter0_i_60_2965" x="0" y="0" width="43.4811" height="49" filterUnits="userSpaceOnUse" color-interpolation-filters="sRGB">
<feFlood flood-opacity="0" result="BackgroundImageFix"/>
<feBlend mode="normal" in="SourceGraphic" in2="BackgroundImageFix" result="shape"/>
<feColorMatrix in="SourceAlpha" type="matrix" values="0 0 0 0 0 0 0 0 0 0 0 0 0 0 0 0 0 0 127 0" result="hardAlpha"/>
<feOffset dy="4"/>
<feGaussianBlur stdDeviation="2"/>
<feComposite in2="hardAlpha" operator="arithmetic" k2="-1" k3="1"/>
<feColorMatrix type="matrix" values="0 0 0 0 0.839216 0 0 0 0 0.662745 0 0 0 0 0.580392 0 0 0 0.25 0"/>
<feBlend mode="normal" in2="shape" result="effect1_innerShadow_60_2965"/>
</filter>
</defs>
</svg>
