<svg width="18" height="18" viewBox="0 0 18 18" fill="none" xmlns="http://www.w3.org/2000/svg">
<path d="M12.3804 7.76923V4.07692C12.3804 3.26087 12.0243 2.47824 11.3904 1.90121C10.7565 1.32417 9.89683 1 9.0004 1C8.10397 1 7.24425 1.32417 6.61038 1.90121C5.97651 2.47824 5.62041 3.26087 5.62041 4.07692V7.76923M15.8559 6.13395L16.9943 15.9801C17.0574 16.5257 16.5887 17 15.9857 17H2.01508C1.87286 17.0001 1.7322 16.973 1.60223 16.9205C1.47226 16.8679 1.35589 16.791 1.26069 16.6948C1.16549 16.5986 1.09358 16.4853 1.04963 16.3622C1.00568 16.239 0.990676 16.1089 1.00559 15.9801L2.14488 6.13395C2.17116 5.90713 2.28875 5.69719 2.47499 5.54462C2.66123 5.39205 2.90292 5.30765 3.15346 5.30769H14.8473C15.3665 5.30769 15.8018 5.66462 15.8559 6.13395ZM5.95841 7.76923C5.95841 7.85084 5.9228 7.9291 5.85941 7.9868C5.79602 8.04451 5.71005 8.07692 5.62041 8.07692C5.53076 8.07692 5.44479 8.04451 5.38141 7.9868C5.31802 7.9291 5.28241 7.85084 5.28241 7.76923C5.28241 7.68763 5.31802 7.60936 5.38141 7.55166C5.44479 7.49396 5.53076 7.46154 5.62041 7.46154C5.71005 7.46154 5.79602 7.49396 5.85941 7.55166C5.9228 7.60936 5.95841 7.68763 5.95841 7.76923ZM12.7184 7.76923C12.7184 7.85084 12.6828 7.9291 12.6194 7.9868C12.556 8.04451 12.47 8.07692 12.3804 8.07692C12.2907 8.07692 12.2048 8.04451 12.1414 7.9868C12.078 7.9291 12.0424 7.85084 12.0424 7.76923C12.0424 7.68763 12.078 7.60936 12.1414 7.55166C12.2048 7.49396 12.2907 7.46154 12.3804 7.46154C12.47 7.46154 12.556 7.49396 12.6194 7.55166C12.6828 7.60936 12.7184 7.68763 12.7184 7.76923Z" stroke="#2E1B14" stroke-width="1.5" stroke-linecap="round" stroke-linejoin="round"/>
</svg>
