<svg width="40" height="40" viewBox="0 0 40 40" fill="none" xmlns="http://www.w3.org/2000/svg">
<line x1="8" y1="9" x2="28" y2="9" stroke="black" stroke-width="2"/>
<line x1="8" y1="14" x2="28" y2="14" stroke="black" stroke-width="2"/>
<path d="M8.86713 22.56L10.5231 26.592L12.1871 22.56H12.9791V28H12.2991V25.672L12.3871 23.576L10.8271 27.36H10.1711L8.64313 23.56L8.73113 25.672V28H8.05113V22.56H8.86713ZM17.7239 27.352V28H14.6839V22.56H17.6439V23.216H15.3799V24.92H17.4039V25.576H15.3799V27.352H17.7239ZM18.9339 28V22.56H19.6619C20.1473 23.2533 20.5926 23.952 20.9979 24.656C21.4086 25.3547 21.7926 26.0853 22.1499 26.848L22.0699 24.768V22.56H22.7499V28H22.0219C21.6486 27.2213 21.2619 26.464 20.8619 25.728C20.4673 24.9867 20.0353 24.264 19.5659 23.56L19.6139 25.776V28H18.9339ZM24.3454 22.56H25.0654V26.048C25.0654 26.4853 25.156 26.8267 25.3374 27.072C25.524 27.3173 25.812 27.44 26.2014 27.44C26.596 27.44 26.884 27.3173 27.0654 27.072C27.2467 26.8267 27.3374 26.4853 27.3374 26.048V22.56H28.0574V26.048C28.0574 26.6827 27.9027 27.1813 27.5934 27.544C27.284 27.9013 26.82 28.08 26.2014 28.08C25.5774 28.08 25.1107 27.9013 24.8014 27.544C24.4974 27.1813 24.3454 26.6827 24.3454 26.048V22.56Z" fill="black"/>
</svg>
