<svg width="20" height="18" viewBox="0 0 20 18" fill="none" xmlns="http://www.w3.org/2000/svg">
<path d="M6.27483 14.6104L5.77427 14.4294L5.34456 14.7435C4.93676 15.0417 4.24303 15.4689 3.41534 15.8288C2.8052 16.0932 2.14124 16.3153 1.48012 16.4255C1.60717 16.2507 1.74451 16.0478 1.8827 15.8207L1.88271 15.8207L1.88508 15.8168C2.32534 15.086 2.77131 14.0833 2.86145 12.9211L2.89415 12.4993L2.61428 12.1821C1.58312 11.0135 1.00116 9.61378 1.00116 8.125C1.00116 4.37306 4.82593 1 10.0012 1C15.1764 1 19.0012 4.37306 19.0012 8.125C19.0012 11.8769 15.1764 15.25 10.0012 15.25C8.66682 15.25 7.40696 15.0198 6.27483 14.6104Z" stroke="#75876D" stroke-width="2"/>
</svg>
